<svg width="692" height="528" viewBox="0 0 692 528" fill="none" xmlns="http://www.w3.org/2000/svg">
<rect x="12.5" y="12.5" width="439" height="344" rx="35.5" stroke="#7B2880" stroke-width="25"/>
<circle cx="229" cy="450" r="56" stroke="#7B2880" stroke-width="25"/>
<circle cx="547" cy="459" r="56" stroke="#7B2880" stroke-width="25"/>
<path fill-rule="evenodd" clip-rule="evenodd" d="M92.5 357.269V424.515V425.351L92.6113 426.18C94.1258 437.453 100.023 445.196 107.052 449.835C113.628 454.176 120.86 455.624 126 455.624H132.5H167.086C167.543 446.696 169.801 438.244 173.504 430.624H132.5H126C124.973 430.624 122.705 430.212 120.823 428.97C119.489 428.089 118.078 426.672 117.5 423.551V357.269H92.5ZM290.496 430.624C294.199 438.244 296.457 446.696 296.914 455.624H482.086C482.543 446.696 484.801 438.244 488.504 430.624H290.496ZM653 455.624H611.914C611.457 446.696 609.199 438.244 605.496 430.624H652.891C660.464 430.482 663.364 428.165 664.423 427.017C665.074 426.31 665.483 425.56 665.727 424.87C665.85 424.522 665.924 424.21 665.965 423.959C666.004 423.717 666.004 423.58 666.004 423.568V423.568L666 423.407V423.247V308.209V307.792C665.92 307.499 665.781 307.064 665.561 306.497C665.117 305.356 664.554 304.207 664.107 303.381L584.866 203.678C570.067 186.514 559.318 183.68 552.5 183.68H471H464V158.68H471H552.5C568.659 158.679 585.86 166.467 603.982 187.565L604.137 187.746L604.286 187.932L684.286 288.59L684.822 289.265L685.261 290.007C686.299 291.763 687.717 294.491 688.864 297.445C689.72 299.648 691.287 304.048 691 308.712V423.116C691.109 429.228 688.969 437.276 682.802 443.964C676.273 451.044 666.36 455.409 653.203 455.623L653.102 455.624H653Z" fill="#7B2880"/>
</svg>
