<svg width="55" height="55" viewBox="0 0 55 55" fill="none" xmlns="http://www.w3.org/2000/svg">
<path d="M53.8542 27.5C54.1581 27.5 54.4495 27.3793 54.6644 27.1644C54.8793 26.9495 55 26.6581 55 26.3542V5.72917C54.9982 4.21026 54.394 2.75408 53.32 1.68004C52.2459 0.606011 50.7897 0.00181942 49.2708 0L5.72917 0C4.21026 0.00181942 2.75408 0.606011 1.68004 1.68004C0.606011 2.75408 0.00181942 4.21026 0 5.72917L0 37.8125C0.00181942 39.3314 0.606011 40.7876 1.68004 41.8616C2.75408 42.9357 4.21026 43.5398 5.72917 43.5417H18.3333V48.6578L15.4057 50.6057C15.2484 50.7107 15.1194 50.853 15.0305 51.02C14.9415 51.1869 14.8952 51.3733 14.8958 51.5625V52.7083C14.8958 53.3161 15.1373 53.899 15.567 54.3288C15.9968 54.7586 16.5797 55 17.1875 55H37.8125C38.4203 55 39.0032 54.7586 39.433 54.3288C39.8627 53.899 40.1042 53.3161 40.1042 52.7083V51.5625C40.1042 51.3739 40.0577 51.1882 39.9687 51.0219C39.8798 50.8556 39.7512 50.7138 39.5943 50.6092L36.6667 48.6578V46.9792C36.6667 46.6753 36.5459 46.3838 36.3311 46.1689C36.1162 45.9541 35.8247 45.8333 35.5208 45.8333C35.2169 45.8333 34.9255 45.9541 34.7106 46.1689C34.4957 46.3838 34.375 46.6753 34.375 46.9792V49.2708C34.375 49.4594 34.4215 49.6451 34.5104 49.8114C34.5994 49.9777 34.728 50.1195 34.8849 50.2242L37.8125 52.1755V52.7083H17.1875V52.1755L20.1151 50.2276C20.2725 50.1226 20.4014 49.9803 20.4904 49.8133C20.5793 49.6464 20.6256 49.46 20.625 49.2708V43.5417H49.2708C50.7897 43.5398 52.2459 42.9357 53.32 41.8616C54.394 40.7876 54.9982 39.3314 55 37.8125V32.0833C55 31.7794 54.8793 31.488 54.6644 31.2731C54.4495 31.0582 54.1581 30.9375 53.8542 30.9375H6.875C6.57111 30.9375 6.27966 31.0582 6.06477 31.2731C5.84989 31.488 5.72917 31.7794 5.72917 32.0833C5.72917 32.3872 5.84989 32.6787 6.06477 32.8936C6.27966 33.1084 6.57111 33.2292 6.875 33.2292H52.7083V37.8125C52.7083 38.7242 52.3462 39.5985 51.7015 40.2432C51.0569 40.8878 50.1825 41.25 49.2708 41.25H5.72917C4.81749 41.25 3.94314 40.8878 3.29849 40.2432C2.65383 39.5985 2.29167 38.7242 2.29167 37.8125V5.72917C2.29167 4.81749 2.65383 3.94314 3.29849 3.29849C3.94314 2.65383 4.81749 2.29167 5.72917 2.29167H49.2708C50.1825 2.29167 51.0569 2.65383 51.7015 3.29849C52.3462 3.94314 52.7083 4.81749 52.7083 5.72917V26.3542C52.7083 26.6581 52.8291 26.9495 53.0439 27.1644C53.2588 27.3793 53.5503 27.5 53.8542 27.5Z" fill="#792D7B"/>
<path d="M22.5809 8.35654C22.3661 8.14173 22.0747 8.02106 21.7708 8.02106C21.467 8.02106 21.1756 8.14173 20.9607 8.35654L14.0857 15.2315C13.8709 15.4464 13.7502 15.7378 13.7502 16.0416C13.7502 16.3455 13.8709 16.6369 14.0857 16.8517L20.9607 23.7268C21.1768 23.9355 21.4663 24.051 21.7667 24.0484C22.0671 24.0457 22.3545 23.9252 22.567 23.7128C22.7794 23.5003 22.8999 23.213 22.9025 22.9125C22.9052 22.6121 22.7897 22.3226 22.5809 22.1065L16.516 16.0416L22.5809 9.97675C22.7957 9.76187 22.9164 9.47048 22.9164 9.16665C22.9164 8.86281 22.7957 8.57142 22.5809 8.35654Z" fill="#792D7B"/>
<path d="M32.419 23.7268C32.6339 23.9416 32.9253 24.0623 33.2291 24.0623C33.533 24.0623 33.8244 23.9416 34.0392 23.7268L40.9142 16.8518C41.129 16.6369 41.2497 16.3455 41.2497 16.0417C41.2497 15.7379 41.129 15.4465 40.9142 15.2316L34.0392 8.35658C33.9335 8.24715 33.8071 8.15985 33.6673 8.0998C33.5275 8.03975 33.3771 8.00814 33.225 8.00682C33.0729 8.0055 32.922 8.03449 32.7812 8.0921C32.6403 8.14971 32.5124 8.2348 32.4048 8.34238C32.2972 8.44997 32.2122 8.5779 32.1545 8.71872C32.0969 8.85954 32.0679 9.01042 32.0693 9.16257C32.0706 9.31471 32.1022 9.46506 32.1622 9.60486C32.2223 9.74466 32.3096 9.87109 32.419 9.97679L38.4839 16.0417L32.419 22.1066C32.2042 22.3215 32.0835 22.6129 32.0835 22.9167C32.0835 23.2205 32.2042 23.5119 32.419 23.7268Z" fill="#792D7B"/>
</svg>
