<svg width="48" height="60" viewBox="0 0 48 60" fill="none" xmlns="http://www.w3.org/2000/svg">
<path d="M24.0135 46.9927H22.0124V48.9938H24.0135V46.9927Z" fill="#7C2C80"/>
<path d="M42.0236 20.9781H33.0185C32.7532 20.9781 32.4987 21.0835 32.311 21.2712C32.1234 21.4588 32.018 21.7133 32.018 21.9787V36.9871H24.0135V34.986H28.0157V32.9848H18.0101V34.986H22.0124V36.9871H14.0079V30.9837C14.0079 30.9697 14.0009 30.9587 13.9999 30.9447C13.995 30.8421 13.9745 30.7409 13.9388 30.6445C13.9298 30.6225 13.9248 30.6005 13.9158 30.5785C13.9068 30.5565 13.9088 30.5535 13.9028 30.5415L10.0056 22.7431V20.9781C10.0056 20.7127 9.90021 20.4582 9.71256 20.2706C9.52492 20.083 9.27042 19.9775 9.00506 19.9775C8.73969 19.9775 8.4852 20.083 8.29755 20.2706C8.10991 20.4582 8.0045 20.7127 8.0045 20.9781V22.7431L4.10731 30.5365C4.10131 30.5485 4.10031 30.5615 4.0943 30.5735C4.0883 30.5855 4.08029 30.6175 4.07129 30.6395C4.03566 30.7359 4.01507 30.8371 4.01026 30.9397C4.01026 30.9537 4.00225 30.9647 4.00225 30.9787V37.9826C4.00225 38.248 4.10767 38.5025 4.29531 38.6901C4.48295 38.8778 4.73745 38.9832 5.00281 38.9832H42.0236C42.289 38.9832 42.5435 38.8778 42.7311 38.6901C42.9187 38.5025 43.0242 38.248 43.0242 37.9826V21.9787C43.0242 21.7133 42.9187 21.4588 42.7311 21.2712C42.5435 21.0835 42.289 20.9781 42.0236 20.9781ZM9.00506 25.2165L11.3884 29.9832H6.62172L9.00506 25.2165ZM12.0067 36.9871H6.00337V31.9843H12.0067V36.9871ZM41.023 36.9871H34.0191V34.986H36.0202V32.9848H34.0191V30.9837H38.0213V28.9826H34.0191V26.9815H36.0202V24.9803H34.0191V22.9792H41.023V36.9871Z" fill="#7C2C80"/>
<path d="M0 43.991V47.9933C0.00158875 49.3196 0.529179 50.5912 1.46704 51.529C2.40491 52.4669 3.67647 52.9945 5.00281 52.9961H17.6839L16.048 58.7243C16.0054 58.8732 15.998 59.0299 16.0263 59.1822C16.0545 59.3344 16.1178 59.478 16.211 59.6017C16.3042 59.7253 16.4248 59.8257 16.5634 59.8948C16.702 59.9639 16.8547 59.9999 17.0095 60H29.0163C29.1711 59.9999 29.3239 59.9639 29.4624 59.8948C29.601 59.8257 29.7217 59.7253 29.8149 59.6017C29.9081 59.478 29.9713 59.3344 29.9996 59.1822C30.0279 59.0299 30.0204 58.8732 29.9778 58.7243L28.3419 52.9961H42.0236C43.3499 52.9945 44.6215 52.4669 45.5593 51.529C46.4972 50.5912 47.0248 49.3196 47.0264 47.9933V18.977C47.0248 17.6506 46.4972 16.3791 45.5593 15.4412C44.6215 14.5033 43.3499 13.9758 42.0236 13.9742H30.6762L30.9364 13.3678C30.9983 13.2239 31.0257 13.0674 31.0161 12.911C31.0065 12.7546 30.9604 12.6026 30.8813 12.4673L23.8774 0.460582C23.7821 0.31881 23.6534 0.202648 23.5027 0.122329C23.3519 0.0420101 23.1837 0 23.0129 0C22.8421 0 22.6739 0.0420101 22.5232 0.122329C22.3724 0.202648 22.2437 0.31881 22.1484 0.460582L15.1445 12.4673C15.0655 12.6026 15.0193 12.7546 15.0097 12.911C15.0002 13.0674 15.0275 13.2239 15.0895 13.3678L15.3496 13.9742H5.00281C3.67647 13.9758 2.40491 14.5033 1.46704 15.4412C0.529179 16.3791 0.00158875 17.6506 0 18.977V43.991ZM18.3363 57.9989L19.7651 52.9961H26.2607L27.6895 57.9989H18.3363ZM23.0129 2.95298L28.8982 13.0426L26.3558 18.977H24.0135V15.7912C24.6811 15.5552 25.2437 15.0907 25.602 14.48C25.9603 13.8692 26.0911 13.1515 25.9714 12.4536C25.8516 11.7557 25.489 11.1226 24.9477 10.6662C24.4063 10.2098 23.721 9.95949 23.0129 9.95949C22.3048 9.95949 21.6195 10.2098 21.0782 10.6662C20.5368 11.1226 20.1742 11.7557 20.0545 12.4536C19.9347 13.1515 20.0656 13.8692 20.4238 14.48C20.7821 15.0907 21.3448 15.5552 22.0124 15.7912V18.977H19.67L17.1276 13.0426L23.0129 2.95298ZM20.0112 22.9792V20.9781H26.0146V22.9792H20.0112ZM26.0146 24.9803V28.9826H20.0112V24.9803H26.0146ZM22.0124 12.9736C22.0124 12.7757 22.071 12.5823 22.181 12.4177C22.2909 12.2532 22.4472 12.1249 22.63 12.0492C22.8128 11.9735 23.014 11.9537 23.2081 11.9923C23.4022 12.0309 23.5805 12.1262 23.7204 12.2661C23.8604 12.406 23.9556 12.5843 23.9943 12.7784C24.0329 12.9725 24.013 13.1737 23.9373 13.3565C23.8616 13.5393 23.7333 13.6956 23.5688 13.8055C23.4043 13.9155 23.2108 13.9742 23.0129 13.9742C22.7476 13.9742 22.4931 13.8688 22.3054 13.6811C22.1178 13.4935 22.0124 13.239 22.0124 12.9736ZM2.00112 18.977C2.00112 18.1809 2.31737 17.4174 2.8803 16.8545C3.44322 16.2915 4.20671 15.9753 5.00281 15.9753H16.2091L18.0101 20.1777V29.9832C18.0101 30.2485 18.1155 30.503 18.3032 30.6907C18.4908 30.8783 18.7453 30.9837 19.0107 30.9837H27.0152C27.2805 30.9837 27.535 30.8783 27.7227 30.6907C27.9103 30.503 28.0157 30.2485 28.0157 29.9832V20.1777L29.8167 15.9753H42.0236C42.8197 15.9753 43.5832 16.2915 44.1461 16.8545C44.709 17.4174 45.0253 18.1809 45.0253 18.977V42.9905H2.00112V18.977ZM2.00112 44.9916H45.0253V47.9933C45.0253 48.7894 44.709 49.5528 44.1461 50.1158C43.5832 50.6787 42.8197 50.9949 42.0236 50.9949H5.00281C4.20671 50.9949 3.44322 50.6787 2.8803 50.1158C2.31737 49.5528 2.00112 48.7894 2.00112 47.9933V44.9916Z" fill="#7C2C80"/>
<path d="M6.00337 9.97192H4.00225V11.973H6.00337V9.97192Z" fill="#7C2C80"/>
<path d="M2.00112 9.97192H0V11.973H2.00112V9.97192Z" fill="#7C2C80"/>
<path d="M10.0056 9.97192H8.00449V11.973H10.0056V9.97192Z" fill="#7C2C80"/>
<path d="M14.0079 9.97192H12.0067V11.973H14.0079V9.97192Z" fill="#7C2C80"/>
<path d="M46.0258 9.97192H32.018V11.973H46.0258V9.97192Z" fill="#7C2C80"/>
</svg>
