<svg width="55" height="55" viewBox="0 0 55 55" fill="none" xmlns="http://www.w3.org/2000/svg">
<path d="M42.552 0.000404936C45.6189 0.00145415 48.6459 -0.00379198 51.6718 0.00670017C52.4818 0.00984782 53.1942 0.263758 53.7367 0.917419C54.0819 1.33396 54.2246 1.80086 54.2246 2.32966C54.2225 10.0792 54.2193 17.8287 54.2193 25.5782C54.2204 34.6266 54.2214 43.674 54.2288 52.7224C54.2298 53.6562 53.872 54.3687 53.0201 54.7663C52.7137 54.909 52.3507 54.9971 52.0128 54.9971C46.2705 55.0055 40.5292 54.9929 34.7868 54.9919C29.3959 54.9898 24.0061 54.9982 18.6152 54.9971C13.792 54.9961 8.96876 54.9898 4.14552 54.9803C3.39008 54.9793 2.6336 54.9814 1.88026 54.9331C0.962197 54.8744 0.0556744 53.9825 0.0556744 53.0005C0.053576 50.6072 0.044133 48.214 0.044133 45.8196C0.0451822 36.4879 0.0556745 27.1562 0.0504284 17.8245C0.0472808 12.8208 0.0231487 7.81706 6.59263e-05 2.81335C-0.00518015 1.66656 0.301191 0.68974 1.44798 0.222839C1.84564 0.0612595 2.31149 0.00984789 2.74691 0.00984789C16.0027 -0.000644264 29.2574 0.00145415 42.552 0.000404936ZM22.2896 32.1673C22.5015 32.0959 22.7135 31.9637 22.9254 31.9627C24.9116 31.9511 26.8967 31.9574 28.8829 31.971C29.4431 31.9752 29.8534 32.333 29.9184 32.8975C29.9741 33.3791 29.9699 33.868 29.9762 34.3538C29.9845 34.9561 29.9782 35.5583 29.9782 36.1427C31.5972 36.1427 33.1563 36.1427 34.6997 36.1427C34.6997 34.0621 34.6976 32.0225 34.7008 29.9828C34.7018 29.1445 35.1309 28.7237 35.9651 28.7227C38.032 28.7195 40.099 28.7153 42.167 28.7164C42.3516 28.7164 42.5478 28.7248 42.7199 28.7835C43.2823 28.9734 43.4617 29.3039 43.4617 30.1412C43.4628 37.0923 43.4617 44.0444 43.4607 50.9954C43.4607 51.6806 43.4607 52.3667 43.4607 53.0561C46.4593 53.0561 49.3971 53.0561 52.3381 53.0561C52.3381 38.6567 52.3381 24.2866 52.3381 9.89556C35.5265 9.89556 18.7412 9.89556 1.9537 9.89556C1.9537 24.2887 1.9537 38.6692 1.9537 53.0498C2.8256 53.0498 3.65763 53.0498 4.52428 53.0498C4.52428 52.8788 4.52428 52.7329 4.52428 52.586C4.52533 50.5033 4.52848 48.4206 4.52743 46.338C4.52638 44.2962 4.51904 42.2534 4.52009 40.2116C4.52009 39.7017 4.73727 39.4404 5.18739 39.4383C7.37605 39.431 9.56471 39.4278 11.7534 39.4415C12.3808 39.4457 12.8509 39.922 12.8498 40.4959C12.8404 44.5795 12.8299 48.663 12.8204 52.7476C12.8204 52.8515 12.8351 52.9543 12.8414 53.0498C13.8109 53.0498 14.7499 53.0498 15.7163 53.0498C15.7163 52.8987 15.7163 52.7791 15.7163 52.6595C15.7163 49.8738 15.7173 47.0871 15.7163 44.3014C15.7163 43.6278 15.9251 43.4054 16.6039 43.4044C18.2249 43.4012 19.847 43.4064 21.4681 43.4085C21.6244 43.4085 21.7807 43.4085 21.9612 43.4085C21.9612 43.2291 21.9612 43.1085 21.9612 42.9878C21.9591 39.688 21.957 36.3882 21.9518 33.0874C21.9507 32.758 21.9371 32.4327 22.2896 32.1673ZM49.8892 7.95241C50.7066 7.95241 51.5249 7.95241 52.3349 7.95241C52.3349 5.897 52.3349 3.90349 52.3349 1.89109C35.5234 1.89109 18.7412 1.89109 1.9537 1.89109C1.9537 3.92342 1.9537 5.92742 1.9537 7.95241C17.9301 7.95241 33.8698 7.95241 49.8892 7.95241ZM36.5096 39.218C36.5096 43.824 36.5096 48.4301 36.5096 53.033C38.2261 53.033 39.8912 53.033 41.5479 53.033C41.5479 45.5343 41.5479 38.0775 41.5479 30.606C39.8566 30.606 38.1905 30.606 36.5117 30.606C36.5117 33.4756 36.5117 36.3106 36.5096 39.218ZM28.0571 40.0448C28.0571 37.94 28.0571 35.8343 28.0571 33.7054C26.605 33.7054 25.1833 33.7054 23.7774 33.7054C23.7774 40.178 23.7774 46.6181 23.7774 53.0424C25.2096 53.0424 26.6092 53.0424 28.0571 53.0424C28.0571 48.7155 28.0571 44.421 28.0571 40.0448ZM6.40238 51.243C6.40238 51.8453 6.40238 52.4486 6.40238 53.0424C7.94787 53.0424 9.43986 53.0424 10.9245 53.0424C10.9245 49.0942 10.9245 45.1828 10.9245 41.2472C9.39789 41.2472 7.90905 41.2472 6.40238 41.2472C6.40343 44.5721 6.40343 47.8667 6.40238 51.243ZM29.972 41.7487C29.972 43.0245 29.972 44.3014 29.972 45.5678C31.5783 45.5678 33.1238 45.5678 34.6619 45.5678C34.6619 43.0266 34.6619 40.5201 34.6619 37.9977C33.0902 37.9977 31.5468 37.9977 29.972 37.9977C29.972 39.24 29.972 40.454 29.972 41.7487ZM21.9423 49.2957C21.9423 47.9097 21.9423 46.5226 21.9423 45.1125C20.4661 45.1125 19.0412 45.1125 17.608 45.1125C17.608 47.7712 17.608 50.4005 17.608 53.0487C19.0538 53.0487 20.4766 53.0487 21.9413 53.0487C21.9423 51.8044 21.9423 50.5904 21.9423 49.2957ZM31.486 47.468C30.9907 47.468 30.4955 47.468 29.9929 47.468C29.9929 49.3586 29.9929 51.2 29.9929 53.0403C31.571 53.0403 33.1165 53.0403 34.663 53.0403C34.663 51.1738 34.663 49.344 34.663 47.468C33.6138 47.468 32.5908 47.468 31.486 47.468Z" fill="#7C2C80"/>
<path d="M12.3074 27.9924C13.4657 25.4858 17.6982 25.1092 19.5323 28.091C22.2382 26.4878 24.9452 24.8836 27.6805 23.2636C27.5252 21.9815 27.6144 20.7172 28.5482 19.6616C29.2616 18.8548 30.1524 18.3617 31.2279 18.2641C33.1878 18.0857 35.75 19.52 35.6765 22.5848C36.8894 23.2772 38.1296 23.9844 39.4044 24.7126C39.8818 24.1397 40.3487 23.5889 40.8041 23.0275C42.0421 21.503 43.2771 19.9743 44.5109 18.4456C45.1531 17.6492 45.7973 16.855 46.4237 16.0471C46.5296 15.9107 46.5894 15.7113 46.602 15.5361C46.6492 14.9066 47.1738 14.3778 47.8411 14.3222C48.4392 14.2718 49.0656 14.7251 49.1789 15.3158C49.2597 15.7376 49.0299 16.0597 48.776 16.3661C47.2767 18.1812 45.7784 19.9974 44.2833 21.8157C43.3946 22.8964 42.508 23.9792 41.6287 25.0672C41.3507 25.4113 41.0884 25.7702 40.8345 26.1322C40.3844 26.7753 39.5209 27.0051 38.7812 26.5508C37.7425 25.9129 36.667 25.3337 35.6073 24.7314C35.4594 24.6475 35.3083 24.5678 35.1614 24.488C33.4742 26.9694 30.3423 27.0817 28.6804 24.935C25.8181 26.6116 22.9485 28.2935 20.0149 30.0122C19.9583 31.352 19.3361 32.4684 18.1851 33.2595C17.4192 33.7862 16.563 34.0579 15.6135 33.9971C14.1529 33.9037 12.0755 32.737 12.1091 30.5252C11.1994 31.0991 10.3149 31.6479 9.44092 32.2113C8.20179 33.0087 6.97106 33.8187 5.73509 34.6214C5.41193 34.8312 5.08038 34.9938 4.68167 34.8092C4.29451 34.6308 4.05529 34.3286 4.01437 33.9163C3.97555 33.5312 4.15392 33.2091 4.48757 33.0014C5.87673 32.1379 7.26904 31.2796 8.65925 30.4182C9.58256 29.8464 10.5027 29.2704 11.4292 28.7048C11.6201 28.5884 11.8352 28.5097 12.0734 28.3985C12.1343 28.2988 12.2161 28.1592 12.3074 27.9924ZM30.1094 20.7717C29.4988 21.375 29.3298 22.1105 29.5334 22.9195C29.7527 23.7945 30.6697 24.4628 31.5416 24.5101C32.6905 24.572 33.5414 23.7672 33.7649 23.0307C34.0408 22.1221 33.811 21.1253 32.8835 20.5241C31.9707 19.9313 31.0936 19.9722 30.1094 20.7717ZM16.5042 31.9563C16.5535 31.9354 16.6029 31.9133 16.6522 31.8934C17.9805 31.3803 18.4883 29.9733 17.7339 28.8139C17.2429 28.0606 16.4801 27.8644 15.625 27.9011C14.7101 27.941 14.0092 28.5023 13.7427 29.433C13.5224 30.201 13.9263 31.1841 14.6094 31.6563C15.1791 32.0497 15.8002 32.0162 16.5042 31.9563Z" fill="#7C2C80"/>
<path d="M40.3434 5.8613C39.8744 5.36292 39.7674 4.80788 40.0171 4.25495C40.2343 3.77231 40.6855 3.5121 41.2971 3.55302C41.9078 3.59394 42.3673 3.89087 42.6108 4.46164C42.807 4.92225 42.594 5.50456 42.1103 5.92005C41.6822 6.28833 41.1303 6.35338 40.6624 6.08583C40.5575 6.02707 40.463 5.95048 40.3434 5.8613Z" fill="#7C2C80"/>
<path d="M45.9641 4.24447C46.6041 3.23512 47.7383 3.4649 48.2829 4.16368C48.6679 4.65786 48.584 5.45946 48.1307 5.89383C47.6575 6.3471 46.8339 6.35864 46.3229 5.92006C45.7616 5.43848 45.6598 4.98941 45.9641 4.24447Z" fill="#7C2C80"/>
<path d="M36.5683 6.24742C35.7888 6.13411 35.2474 5.54655 35.2684 4.87085C35.2883 4.21194 35.8696 3.6055 36.518 3.56668C37.2713 3.52156 37.9921 4.15109 38.0047 4.88869C38.0183 5.63048 37.2377 6.35234 36.5683 6.24742Z" fill="#7C2C80"/>
<path d="M29.866 4.28436C30.2395 3.68735 30.7158 3.45862 31.252 3.60132C31.9434 3.78598 32.3956 4.28121 32.4093 4.86667C32.424 5.52033 31.7755 6.22645 31.1429 6.24534C30.4409 6.26632 29.7715 5.67037 29.7495 4.97684C29.7422 4.7565 29.8114 4.53197 29.866 4.28436Z" fill="#7C2C80"/>
</svg>
