<svg width="60" height="58" viewBox="0 0 60 58" fill="none" xmlns="http://www.w3.org/2000/svg">
<path d="M13.4971 33.0665C13.4952 33.5952 13.9219 34.0254 14.4506 34.0275C14.9822 34.0296 15.4136 33.5981 15.4115 33.0665V7.62117H45.443V14.879C45.4411 15.4077 45.8678 15.8379 46.3965 15.84C46.9281 15.8421 47.3595 15.4106 47.3575 14.879C47.3487 12.091 47.3753 9.30194 47.3461 6.51449C47.223 2.93189 44.2702 0.0457052 40.6586 0.0457052L20.1957 0.0455322C16.5816 0.0455322 13.6273 2.93576 13.5081 6.52184C13.4843 15.3693 13.4971 24.2185 13.4971 33.0665ZM20.1958 1.96191H40.6587C42.9552 1.96191 44.8516 3.558 45.3233 5.70669H15.5312C16.0029 3.558 17.8993 1.96191 20.1958 1.96191ZM28.5118 2.91539C27.9802 2.91349 27.5488 3.34481 27.5509 3.87639C27.5528 4.40508 27.9832 4.83193 28.5118 4.82986H32.3427C32.8684 4.82793 33.2941 4.40213 33.2962 3.87639C33.2981 3.34773 32.8713 2.91748 32.3427 2.91539H28.5118ZM17.9841 9.14117C17.4554 9.13925 17.0252 9.56596 17.0231 10.0946C17.0212 10.6262 17.4525 11.0577 17.9841 11.0556H32.3427C32.8713 11.0538 33.2982 10.6233 33.2962 10.0946C33.2942 9.56888 32.8684 9.14322 32.3427 9.14117H17.9841ZM18.9376 12.9701C18.4118 12.9721 17.9862 13.3979 17.9841 13.9236C17.9851 14.4501 18.4111 14.8769 18.9376 14.879H20.8521C21.3815 14.8811 21.812 14.453 21.8131 13.9236C21.8111 13.395 21.3807 12.9681 20.8521 12.9701H18.9376ZM24.6829 12.9701C24.1571 12.9721 23.7314 13.3979 23.7294 13.9236C23.7303 14.4501 24.1564 14.8769 24.6829 14.879H27.5509C28.0803 14.8811 28.5108 14.453 28.5118 13.9236C28.5099 13.395 28.0795 12.9681 27.5509 12.9701H24.6829ZM31.3817 12.9701C30.8559 12.9721 30.4302 13.3979 30.4282 13.9236C30.4291 14.4501 30.8552 14.8769 31.3817 14.879H32.3427C32.8691 14.8769 33.2951 14.4501 33.2962 13.9236C33.2942 13.3979 32.8684 12.9722 32.3427 12.9701H31.3817ZM52.3829 15.782L51.364 17.5413C51.0985 17.9987 51.2542 18.5848 51.7118 18.8501C52.1715 19.1171 52.7608 18.9586 53.0242 18.4966L54.0357 16.7372C54.3015 16.2803 54.1467 15.6944 53.6898 15.4286C53.1107 15.1525 52.6901 15.3089 52.3829 15.782ZM43.2312 16.6084C42.8505 16.5795 42.4581 16.6623 42.1076 16.8646L40.3483 17.8817C39.4138 18.4213 39.0815 19.6469 39.621 20.5814L39.7949 20.8843L32.6736 29.3591L29.3046 31.3073C27.8835 32.1277 27.3885 33.9713 28.209 35.3924L29.226 37.1516C30.0465 38.5726 31.89 39.0678 33.3111 38.2472L33.5841 38.0902L35.1415 40.7824C35.4048 41.2409 35.9899 41.3992 36.4483 41.136C36.9041 40.8701 37.0588 40.2856 36.7942 39.8291L35.2424 37.133L36.6764 36.3048L47.5874 34.3717L47.7613 34.6709C48.3009 35.6054 49.5265 35.9377 50.461 35.3982L52.2203 34.3811C53.1549 33.8415 53.4797 32.616 52.9401 31.6814L50.8499 28.0599C51.8294 27.3543 52.4857 26.5723 52.7849 25.7042C53.1605 24.6149 52.9137 23.4991 52.3961 22.6025C51.8784 21.706 51.0331 20.9337 49.902 20.7143C49.0006 20.5397 47.9987 20.7164 46.8994 21.2116L44.8073 17.5844C44.4701 17.0003 43.8658 16.6543 43.2312 16.6084ZM17.9841 16.7935C17.4525 16.7913 17.021 17.2229 17.0231 17.7545C17.025 18.2831 17.4554 18.71 17.9841 18.7079H20.8521C21.3807 18.7101 21.811 18.2831 21.8131 17.7545C21.815 17.2229 21.3837 16.7914 20.8521 16.7935H17.9841ZM24.2024 16.7935C23.6737 16.7956 23.2468 17.2258 23.2489 17.7545C23.2508 18.2802 23.6766 18.7059 24.2024 18.7079H32.3427C32.8684 18.7059 33.2941 18.2802 33.2962 17.7545C33.2981 17.2258 32.8713 16.7955 32.3427 16.7935H24.2024ZM51.2874 32.6421C51.3095 32.6804 51.3033 32.6985 51.265 32.7206L49.5001 33.7377C49.4616 33.7603 49.4438 33.7547 49.4216 33.715C46.8809 29.3102 44.3344 24.9053 41.7898 20.5007L41.2813 19.6182C41.2592 19.5799 41.2634 19.5618 41.302 19.5397L43.0613 18.5226C43.1012 18.5 43.1223 18.5 43.1348 18.523L51.2874 32.6421ZM55.7164 19.5773L53.5122 20.8486C53.0526 21.112 52.8942 21.6985 53.1588 22.1574C53.4228 22.6163 54.0092 22.7738 54.4676 22.5087L56.6718 21.2373C57.1303 20.974 57.2885 20.3889 57.0252 19.9305C56.7775 19.466 56.1859 19.3477 55.7164 19.5773ZM18.9376 20.6224C18.4089 20.6245 17.982 21.0547 17.9841 21.5834C17.9851 22.1099 18.4111 22.5367 18.9376 22.5388C19.467 22.5409 19.8975 22.1128 19.8986 21.5834C19.9005 21.0518 19.4692 20.6203 18.9376 20.6224ZM22.6469 20.6224C22.1182 20.6245 21.6913 21.0547 21.6934 21.5834C21.6944 22.1099 22.1204 22.5367 22.6469 22.5388H24.6829C25.2094 22.5368 25.6354 22.1099 25.6364 21.5834C25.6383 21.0547 25.2116 20.6245 24.6829 20.6224H22.6469ZM28.5118 20.6224C27.9802 20.6203 27.5488 21.0518 27.5509 21.5834C27.5518 22.1128 27.9824 22.5409 28.5118 22.5388C29.039 22.5377 29.4662 22.1106 29.4672 21.5834C29.4691 21.054 29.0412 20.6234 28.5118 20.6224ZM32.3427 20.6224C31.8111 20.6203 31.3796 21.0518 31.3817 21.5834C31.3826 22.1128 31.8133 22.5409 32.3427 22.5388C32.8691 22.5367 33.2951 22.1099 33.2962 21.5834C33.2981 21.0547 32.8713 20.6245 32.3427 20.6224ZM49.5337 22.5948C50.0559 22.696 50.4182 22.9928 50.7433 23.5558C51.0684 24.1189 51.1429 24.5784 50.9695 25.0814C50.8415 25.4527 50.5264 25.9048 49.8908 26.3939L47.8585 22.8734C48.4279 22.6024 48.9081 22.5222 49.5337 22.5948ZM40.8138 22.6456C42.7328 25.9677 44.6493 29.2913 46.5666 32.6143L36.8503 34.325L36.1866 33.1734L34.4703 30.1969L40.8138 22.6456ZM56.2624 24.1133C55.7352 24.1143 55.308 24.5414 55.307 25.0686C55.3089 25.5951 55.7359 26.0211 56.2624 26.0221H58.2965C58.8223 26.0201 59.248 25.5944 59.25 25.0686C59.249 24.5421 58.823 24.1153 58.2965 24.1133H56.2624ZM17.7429 24.4533C17.2113 24.4513 16.7799 24.8828 16.7819 25.4143C16.7839 25.943 17.2143 26.3699 17.7429 26.3678H25.8776C26.4062 26.3699 26.8365 25.943 26.8385 25.4143C26.8405 24.8828 26.4092 24.4513 25.8776 24.4533H17.7429ZM32.9559 31.4083L34.0029 33.2237L35.048 35.0391C34.1401 35.5582 33.2569 36.0733 32.3557 36.5927C31.8308 36.8959 31.1819 36.7211 30.8788 36.1964L29.8617 34.4371C29.5585 33.912 29.733 33.2632 30.258 32.9601L32.9559 31.4083ZM18.9881 37.9912C18.2998 37.3037 17.1599 37.3036 16.4716 37.9912L15.447 39.0157C15.326 39.137 15.2423 39.1259 15.1292 39.0794C15.016 39.0324 14.946 38.976 14.946 38.8045V37.3555C14.946 36.3824 14.1374 35.5758 13.1643 35.5758H10.7188C9.74516 35.5758 8.93897 36.3823 8.93897 37.3555V38.8045C8.93897 38.9757 8.86889 39.0324 8.75576 39.0794C8.64263 39.1262 8.55898 39.137 8.43793 39.0157L7.41339 37.9912C6.72507 37.3037 5.58521 37.3036 4.8969 37.9912C4.89403 37.9911 4.89219 37.9911 4.8893 37.9912L3.16553 39.7168C2.47652 40.405 2.47714 41.5505 3.16553 42.2389L4.19007 43.2634C4.31116 43.3847 4.30052 43.4681 4.25363 43.5815C4.20674 43.6949 4.15747 43.7649 3.98627 43.7649H2.53734C1.56361 43.7644 0.75 44.5728 0.75 45.5461V47.9896C0.75 48.9627 1.56418 49.7714 2.53734 49.7714H3.98628C4.15752 49.7714 4.2068 49.8417 4.25365 49.9545C4.30046 50.0676 4.31106 50.1512 4.19008 50.2725L3.16554 51.2971C2.47656 51.9853 2.47712 53.1252 3.16554 53.8136L4.88931 55.5448C4.89027 55.5448 4.89218 55.5448 4.89328 55.5448C4.89424 55.5448 4.89614 55.5448 4.89725 55.5448C5.58557 56.2324 6.72544 56.2324 7.41374 55.5448L8.43828 54.5202C8.55934 54.3989 8.64295 54.41 8.75611 54.4565C8.86928 54.5035 8.93933 54.5529 8.93933 54.7238V56.1728C8.93933 57.1459 9.74607 57.9545 10.7192 57.9545H13.1646C14.1378 57.9545 14.9463 57.1459 14.9463 56.1728V54.7238C14.9463 54.5526 15.0164 54.5035 15.1296 54.4565C15.2427 54.4094 15.3263 54.3989 15.4474 54.5202L16.4719 55.5448C17.1602 56.2324 18.3001 56.2324 18.9884 55.5448C18.9903 55.5448 18.9924 55.5448 18.9942 55.5448L20.718 53.8136C21.407 53.1254 21.4064 51.9854 20.718 51.2971L19.6934 50.2724C19.5724 50.1511 19.583 50.0678 19.6299 49.9545C19.6767 49.8414 19.7278 49.7714 19.8991 49.7714H21.348C22.3212 49.7714 23.1353 48.9628 23.1353 47.9896V45.5461C23.1353 44.5729 22.3212 43.7644 21.348 43.7644H19.8991C19.7279 43.7644 19.6767 43.6941 19.6299 43.581C19.583 43.4676 19.5722 43.3842 19.6934 43.2629L20.718 42.2384C21.407 41.5501 21.4064 40.4047 20.718 39.7163L18.9942 37.9911H18.9914L18.9881 37.9912ZM46.3965 36.8975C45.8678 36.8996 45.4409 37.3298 45.443 37.8585V46.9522H25.6364C25.1106 46.9543 24.6849 47.38 24.6829 47.9057C24.681 48.4344 25.1077 48.8646 25.6364 48.8667H45.443V49.8202C45.443 52.4748 43.3133 54.6045 40.6587 54.6045H22.7684C22.239 54.6056 21.811 55.0361 21.8131 55.5655C21.815 56.092 22.2419 56.518 22.7684 56.519H40.6587C44.348 56.519 47.3574 53.5095 47.3574 49.8202V37.8585C47.3594 37.3269 46.9281 36.8954 46.3965 36.8975ZM10.8534 37.4901H13.0297V38.8044C13.0296 39.7472 13.6372 40.5324 14.3945 40.8461C15.1517 41.1597 16.1302 41.0321 16.7969 40.3656L17.7298 39.4326L19.2704 40.9732L18.3375 41.9061C17.6709 42.5728 17.5508 43.5588 17.8644 44.316C18.1781 45.0733 18.9558 45.6808 19.8986 45.6808H21.2204V47.8571H19.8986C18.9558 47.8571 18.1781 48.4628 17.8644 49.22C17.5508 49.9772 17.6708 50.9558 18.3375 51.6225L19.2704 52.5554L17.7298 54.0959L16.7969 53.163C16.1303 52.4964 15.1517 52.3764 14.3945 52.69C13.6372 53.0037 13.0297 53.7814 13.0297 54.7241V56.046H10.8534V54.7241C10.8534 53.7814 10.2477 53.0037 9.49049 52.69C8.73327 52.3764 7.74723 52.4964 7.08057 53.163L6.15512 54.0959L4.61456 52.5554L5.54002 51.6225C6.20666 50.9558 6.33416 49.9772 6.02051 49.22C5.70683 48.4628 4.92914 47.8571 3.98638 47.8571H2.66457V45.6808H3.98638C4.92918 45.6808 5.70685 45.0733 6.02051 44.316C6.33418 43.5588 6.20668 42.5728 5.54002 41.9061L4.61456 40.9807L6.15512 39.4326L7.08057 40.3656C7.74724 41.0322 8.73326 41.1597 9.49049 40.8461C10.2477 40.5324 10.8534 39.7472 10.8534 38.8044V37.4901ZM9.32784 43.9496V49.5883C9.32748 50.3283 10.1309 50.7889 10.7693 50.4147L15.6527 47.5953C16.2933 47.2273 16.2933 46.3031 15.6527 45.9351L10.7693 43.1157C10.1396 42.7513 9.28159 42.9008 9.32784 43.9496ZM11.2423 45.6024L13.2559 46.769L11.2423 47.9337V45.6024ZM28.5118 50.7756C27.9802 50.7735 27.5488 51.2049 27.5509 51.7365C27.5528 52.2651 27.9832 52.6921 28.5118 52.69H32.3427C32.8684 52.688 33.2941 52.2622 33.2962 51.7365C33.2981 51.2078 32.8713 50.7776 32.3427 50.7756H28.5118ZM36.1716 50.7756C35.64 50.7735 35.2086 51.2049 35.2106 51.7365C35.2125 52.2652 35.6429 52.6921 36.1716 52.69H38.088C38.6137 52.688 39.0394 52.2622 39.0414 51.7365C39.0434 51.2078 38.6166 50.7776 38.088 50.7756H36.1716Z" fill="#7C2C80"/>
</svg>
