<svg width="437" height="476" viewBox="0 0 437 476" fill="none" xmlns="http://www.w3.org/2000/svg">
<mask id="path-1-outside-1_109_36" maskUnits="userSpaceOnUse" x="0.958721" y="0.0107422" width="436" height="476" fill="black">
<rect fill="white" x="0.958721" y="0.0107422" width="436" height="476"/>
<path d="M92.43 201C92.13 197.42 90.73 194.54 89.43 191.74C84.2224 180.166 81.6179 167.59 81.8 154.9C81.8 146.99 81.59 146.99 73.96 146.99H13.49C12.32 146.99 11.15 146.99 9.99 146.99C6.93 146.99 3.89 146.99 2.49 143.47C1.23 140.22 3.59 138.47 5.39 136.64C12.17 129.75 18.97 122.88 25.91 116.16C32 110.29 37.33 103.6 46 99.5796C40.26 97.0796 35.41 95.3396 30.9 92.9396C13.46 83.7196 4.13 68.9996 2.15 49.5596C1.49 42.9996 3.27 41.0896 9.92 40.9996C21.41 40.9096 32.92 40.7396 44.4 41.0796C48.52 41.1996 50.12 39.9096 51.16 36.0796C55.72 18.9996 66.36 7.55963 83.54 2.63963C87.0583 1.60899 90.7039 1.07714 94.37 1.05963C121.03 1.05963 147.68 0.949631 174.37 1.05963C200.7 1.19963 219.9 20.6496 219.93 47.0596C219.98 84.3796 219.79 121.69 220.03 159.06C220.25 172.28 216.634 185.281 209.62 196.49C208.87 197.69 207.19 198.94 208.1 200.4C209.01 201.86 210.85 200.99 212.27 201C222.93 201.12 233.63 200.58 244.27 201.36C260.92 202.57 274.82 210.27 286.33 222.08C307.143 243.413 328.253 264.463 349.66 285.23C350.81 286.35 352.03 287.38 353.95 289.1V282.89C353.95 245.41 353.95 207.926 353.95 170.44C353.95 165.44 354.4 160.44 356.85 155.92C359.031 151.901 362.477 148.715 366.654 146.855C370.832 144.996 375.506 144.568 379.951 145.637C384.397 146.706 388.365 149.213 391.24 152.768C394.114 156.324 395.735 160.729 395.85 165.3C396.17 172.78 396.21 180.3 395.92 187.78C395.76 191.78 396.72 193.3 401.05 193.14C410.2 192.79 419.37 192.98 428.53 193.05C434.46 193.05 435.9 194.54 435.9 200.46C435.9 276.1 435.9 351.736 435.9 427.37C435.9 433.8 434.77 434.88 428.26 434.91C414.6 434.97 400.94 435.17 387.26 434.91C382.46 434.82 380.05 436.33 378.64 441.01C374.46 454.85 366.43 465.67 352.8 471.61C347.25 473.918 341.28 475.049 335.27 474.93C292.96 474.93 250.65 475.02 208.33 474.98C186.07 474.98 169.53 462.4 163.7 440.88C162.5 436.45 160.7 434.93 155.95 434.98C128.3 435.26 100.64 435.2 72.95 434.98C68.95 434.98 67.89 436.12 67.95 439.98C68.21 450.3 67.83 460.64 68.14 470.98C68.26 475.3 65.86 474.91 63.14 474.8C60.62 474.7 57.86 475.66 57.99 471.1C58.3 460.45 57.99 449.78 58.16 439.1C58.22 435.8 57.22 434.83 53.95 434.87C39.29 435.02 24.63 434.96 9.95 434.87C3.38 435 2 433.64 2 427.07C2 374.43 1.84 321.78 2.15 269.14C2.37 231.14 33.15 201.14 71.29 201H92.43ZM68.28 282.11V341.57C68.28 352.74 68.28 352.74 79.42 352.74C105.42 352.74 131.42 352.66 157.35 352.83C161.15 352.83 162.35 351.83 162.04 348.06C161.819 343.729 161.819 339.39 162.04 335.06C162.71 309.93 178.04 292.78 202.87 289.46C211.98 288.25 221.17 289.13 230.32 289C232.72 289 233.9 288.53 233.89 285.73C233.797 261.916 233.797 238.103 233.89 214.29C233.89 211.91 233.09 211.08 230.72 211.1C219.9 211.18 209.07 211.16 198.25 211.1C196.12 211.1 195.34 211.68 195.6 214.02C195.945 217.341 196.049 220.683 195.91 224.02C195 251.02 169.31 271.41 142.84 266.16C119.2 261.47 104.01 240.88 106.27 215.96C106.66 211.59 105.41 210.96 101.63 211.08C92.15 211.3 82.63 211.38 73.16 211.08C69 210.94 68.23 212.44 68.26 216.2C68.36 238.15 68.28 260.13 68.28 282.11ZM271.34 464.91C292.65 464.91 313.97 464.91 335.28 464.91C354.83 464.91 369.82 450.01 369.86 430.56C369.92 398.42 369.92 366.28 369.86 334.14C369.86 314.14 354.86 299.06 334.86 299.04C292.4 299 249.94 299 207.48 299.04C189.35 299.04 176.07 310.19 172.64 327.89C171.2 335.35 172.3 342.83 172.07 350.3C171.99 353.18 173.82 352.97 175.7 352.97C182.7 352.97 189.7 352.97 196.7 352.97C202.41 352.97 203.84 354.37 203.91 359.97C204.01 368.13 204.033 376.29 203.98 384.45C203.98 391.1 204.73 397.84 203.45 404.39C200.55 419.27 191.45 428.84 177.19 433.67C174.72 434.51 172.06 434.72 173.19 438.87C177.59 454.65 190.51 464.87 206.89 464.87C228.38 465 249.86 464.91 271.34 464.91ZM209.94 131.67V120.14C209.94 96.1396 209.94 72.1396 209.94 48.1396C209.94 25.7496 195.55 11.0696 173.24 10.9696C148.087 10.8496 122.933 10.8496 97.78 10.9696C76.09 11.0596 62.78 22.7196 60.18 44.2896C59.55 49.4696 57.34 51.0896 52.47 51.0096C40.47 50.8196 28.47 51.0096 16.47 50.8596C13.14 50.8096 12.42 51.8596 13.13 54.8596C15.66 65.5096 21 74.2896 29.82 80.7696C36.6857 85.8705 44.9507 88.743 53.5 88.9996C56.16 89.0996 58.5 89.7696 59.6 92.4696C60.7 95.1696 59.19 96.9996 57.6 98.7196C55.2 101.26 52.65 103.66 50.18 106.14L21.88 134.55C24.6308 136.298 27.8544 137.153 31.11 137C55.26 137 79.42 137 103.57 137C114.432 136.986 124.876 132.808 132.751 125.326C140.626 117.844 145.332 107.627 145.9 96.7796C146.07 93.9296 146.08 91.0096 149.28 89.5896C152.48 88.1696 154.28 90.3196 156.4 91.8896C169.593 101.763 182.793 111.643 196 121.53C200.18 124.68 204.48 127.72 209.94 131.67ZM425.72 337.87C425.72 310.536 425.72 283.203 425.72 255.87C425.72 253.28 426.06 251.09 422.05 251.14C403.9 251.34 385.74 251.27 367.58 251.14C364.79 251.14 363.83 251.97 363.86 254.84C363.99 267.84 363.93 280.84 363.92 293.84C363.84 297.212 365.102 300.478 367.43 302.92C376.33 312.4 380.04 323.71 379.96 336.62C379.79 364.27 379.96 391.93 379.82 419.62C379.82 423.62 380.63 425.07 384.94 424.95C396.94 424.616 408.94 424.596 420.94 424.89C425.08 424.98 425.84 423.57 425.82 419.8C425.65 392.5 425.72 365.19 425.72 337.87ZM210 156.15C212.41 147.62 207.3 141.82 199.66 136.48C186.43 127.24 173.73 117.24 160.82 107.55C156.12 104.02 156.11 104.01 154.07 109.29C147.55 126.09 137.01 138.91 119.17 144.45C111.799 146.584 104.124 147.476 96.46 147.09C94.77 147.09 92.74 146.4 92.46 149.37C91.13 164.32 92.74 178.65 101.2 191.54C114.48 211.78 144.38 222.11 168.49 214.85C191.51 207.91 211.45 186.56 210 156.15ZM63.18 424.8C78.49 424.8 93.8 424.68 109.11 424.89C112.82 424.94 113.91 423.98 113.86 420.19C113.66 402.723 113.66 385.246 113.86 367.76C113.86 364 112.86 363 109.1 363.02C78.3133 363.16 47.52 363.16 16.72 363.02C13.24 363.02 12.19 364.02 12.23 367.5C12.39 385.14 12.39 402.783 12.23 420.43C12.23 423.96 13.29 424.9 16.74 424.86C32.22 424.7 47.7 424.8 63.18 424.8ZM57.87 283.34V220.39C57.87 212.77 57.01 212.21 49.58 215L48.65 215.35C37.8951 219.797 28.69 227.316 22.1856 236.967C15.6811 246.618 12.1661 257.972 12.08 269.61C12.0267 290.09 12 310.573 12 331.06C12 336.89 12.14 342.71 12.24 348.54C12.3 351.76 13.7 352.98 17.17 352.91C29.17 352.68 41.17 352.62 53.17 352.91C57.4 353.02 58 351.43 57.98 347.77C57.8 326.31 57.87 304.82 57.87 283.34ZM158.87 363.1C148.71 363.1 138.55 363.24 128.39 363.02C125.02 362.95 124.16 364.07 124.18 367.29C124.307 385.116 124.307 402.943 124.18 420.77C124.18 423.98 125.03 425.06 128.39 425.01C141.54 424.81 154.71 425.01 167.86 424.87C182.7 424.69 193.27 414.35 193.71 399.42C194.02 388.6 193.71 377.77 193.87 366.94C193.93 363.8 192.87 363 189.87 363.04C179.54 363.19 169.21 363.1 158.88 363.1H158.87ZM337.35 288.76C335.89 287.03 335.22 286.12 334.44 285.33C316.86 267.59 298.87 250.23 281.82 231.99C272.24 221.75 261 215.22 247.93 211.09C245.02 210.18 243.93 210.15 243.98 213.78C244.14 237.426 244.14 261.073 243.98 284.72C243.98 288.14 245.17 288.85 248.32 288.83C265.47 288.69 282.62 288.76 299.77 288.76H337.35ZM363.92 201.07C363.92 212.07 363.84 223.07 363.92 234.07C363.99 240.96 364.11 240.96 370.78 240.96C387.59 240.96 404.4 240.88 421.21 241.03C424.55 241.03 425.86 240.38 425.77 236.71C425.51 226.903 425.51 217.083 425.77 207.25C425.86 203.54 424.46 202.85 421.15 202.94C413.67 203.15 406.15 203.01 398.69 203.01C386 203 386 203 386 190.41C386 182.09 386.1 173.76 385.84 165.41C385.798 163.136 385.035 160.935 383.66 159.124C382.285 157.314 380.37 155.987 378.192 155.336C376.014 154.684 373.685 154.743 371.542 155.502C369.399 156.261 367.552 157.682 366.27 159.56C364.44 162.04 363.95 165 363.96 168.08C364 179.1 363.92 190.08 363.93 201.07H363.92ZM150.67 257C169.95 257.08 185.73 241.74 185.77 223C185.77 220 185.77 218.22 181.85 220C161.35 229.44 140.71 229.37 120.18 220.05C116.75 218.5 116.38 219.61 116.37 222.73C116.417 231.809 120.047 240.503 126.47 246.92C132.893 253.338 141.59 256.96 150.67 257Z"/>
</mask>
<path d="M92.43 201C92.13 197.42 90.73 194.54 89.43 191.74C84.2224 180.166 81.6179 167.59 81.8 154.9C81.8 146.99 81.59 146.99 73.96 146.99H13.49C12.32 146.99 11.15 146.99 9.99 146.99C6.93 146.99 3.89 146.99 2.49 143.47C1.23 140.22 3.59 138.47 5.39 136.64C12.17 129.75 18.97 122.88 25.91 116.16C32 110.29 37.33 103.6 46 99.5796C40.26 97.0796 35.41 95.3396 30.9 92.9396C13.46 83.7196 4.13 68.9996 2.15 49.5596C1.49 42.9996 3.27 41.0896 9.92 40.9996C21.41 40.9096 32.92 40.7396 44.4 41.0796C48.52 41.1996 50.12 39.9096 51.16 36.0796C55.72 18.9996 66.36 7.55963 83.54 2.63963C87.0583 1.60899 90.7039 1.07714 94.37 1.05963C121.03 1.05963 147.68 0.949631 174.37 1.05963C200.7 1.19963 219.9 20.6496 219.93 47.0596C219.98 84.3796 219.79 121.69 220.03 159.06C220.25 172.28 216.634 185.281 209.62 196.49C208.87 197.69 207.19 198.94 208.1 200.4C209.01 201.86 210.85 200.99 212.27 201C222.93 201.12 233.63 200.58 244.27 201.36C260.92 202.57 274.82 210.27 286.33 222.08C307.143 243.413 328.253 264.463 349.66 285.23C350.81 286.35 352.03 287.38 353.95 289.1V282.89C353.95 245.41 353.95 207.926 353.95 170.44C353.95 165.44 354.4 160.44 356.85 155.92C359.031 151.901 362.477 148.715 366.654 146.855C370.832 144.996 375.506 144.568 379.951 145.637C384.397 146.706 388.365 149.213 391.24 152.768C394.114 156.324 395.735 160.729 395.85 165.3C396.17 172.78 396.21 180.3 395.92 187.78C395.76 191.78 396.72 193.3 401.05 193.14C410.2 192.79 419.37 192.98 428.53 193.05C434.46 193.05 435.9 194.54 435.9 200.46C435.9 276.1 435.9 351.736 435.9 427.37C435.9 433.8 434.77 434.88 428.26 434.91C414.6 434.97 400.94 435.17 387.26 434.91C382.46 434.82 380.05 436.33 378.64 441.01C374.46 454.85 366.43 465.67 352.8 471.61C347.25 473.918 341.28 475.049 335.27 474.93C292.96 474.93 250.65 475.02 208.33 474.98C186.07 474.98 169.53 462.4 163.7 440.88C162.5 436.45 160.7 434.93 155.95 434.98C128.3 435.26 100.64 435.2 72.95 434.98C68.95 434.98 67.89 436.12 67.95 439.98C68.21 450.3 67.83 460.64 68.14 470.98C68.26 475.3 65.86 474.91 63.14 474.8C60.62 474.7 57.86 475.66 57.99 471.1C58.3 460.45 57.99 449.78 58.16 439.1C58.22 435.8 57.22 434.83 53.95 434.87C39.29 435.02 24.63 434.96 9.95 434.87C3.38 435 2 433.64 2 427.07C2 374.43 1.84 321.78 2.15 269.14C2.37 231.14 33.15 201.14 71.29 201H92.43ZM68.28 282.11V341.57C68.28 352.74 68.28 352.74 79.42 352.74C105.42 352.74 131.42 352.66 157.35 352.83C161.15 352.83 162.35 351.83 162.04 348.06C161.819 343.729 161.819 339.39 162.04 335.06C162.71 309.93 178.04 292.78 202.87 289.46C211.98 288.25 221.17 289.13 230.32 289C232.72 289 233.9 288.53 233.89 285.73C233.797 261.916 233.797 238.103 233.89 214.29C233.89 211.91 233.09 211.08 230.72 211.1C219.9 211.18 209.07 211.16 198.25 211.1C196.12 211.1 195.34 211.68 195.6 214.02C195.945 217.341 196.049 220.683 195.91 224.02C195 251.02 169.31 271.41 142.84 266.16C119.2 261.47 104.01 240.88 106.27 215.96C106.66 211.59 105.41 210.96 101.63 211.08C92.15 211.3 82.63 211.38 73.16 211.08C69 210.94 68.23 212.44 68.26 216.2C68.36 238.15 68.28 260.13 68.28 282.11ZM271.34 464.91C292.65 464.91 313.97 464.91 335.28 464.91C354.83 464.91 369.82 450.01 369.86 430.56C369.92 398.42 369.92 366.28 369.86 334.14C369.86 314.14 354.86 299.06 334.86 299.04C292.4 299 249.94 299 207.48 299.04C189.35 299.04 176.07 310.19 172.64 327.89C171.2 335.35 172.3 342.83 172.07 350.3C171.99 353.18 173.82 352.97 175.7 352.97C182.7 352.97 189.7 352.97 196.7 352.97C202.41 352.97 203.84 354.37 203.91 359.97C204.01 368.13 204.033 376.29 203.98 384.45C203.98 391.1 204.73 397.84 203.45 404.39C200.55 419.27 191.45 428.84 177.19 433.67C174.72 434.51 172.06 434.72 173.19 438.87C177.59 454.65 190.51 464.87 206.89 464.87C228.38 465 249.86 464.91 271.34 464.91ZM209.94 131.67V120.14C209.94 96.1396 209.94 72.1396 209.94 48.1396C209.94 25.7496 195.55 11.0696 173.24 10.9696C148.087 10.8496 122.933 10.8496 97.78 10.9696C76.09 11.0596 62.78 22.7196 60.18 44.2896C59.55 49.4696 57.34 51.0896 52.47 51.0096C40.47 50.8196 28.47 51.0096 16.47 50.8596C13.14 50.8096 12.42 51.8596 13.13 54.8596C15.66 65.5096 21 74.2896 29.82 80.7696C36.6857 85.8705 44.9507 88.743 53.5 88.9996C56.16 89.0996 58.5 89.7696 59.6 92.4696C60.7 95.1696 59.19 96.9996 57.6 98.7196C55.2 101.26 52.65 103.66 50.18 106.14L21.88 134.55C24.6308 136.298 27.8544 137.153 31.11 137C55.26 137 79.42 137 103.57 137C114.432 136.986 124.876 132.808 132.751 125.326C140.626 117.844 145.332 107.627 145.9 96.7796C146.07 93.9296 146.08 91.0096 149.28 89.5896C152.48 88.1696 154.28 90.3196 156.4 91.8896C169.593 101.763 182.793 111.643 196 121.53C200.18 124.68 204.48 127.72 209.94 131.67ZM425.72 337.87C425.72 310.536 425.72 283.203 425.72 255.87C425.72 253.28 426.06 251.09 422.05 251.14C403.9 251.34 385.74 251.27 367.58 251.14C364.79 251.14 363.83 251.97 363.86 254.84C363.99 267.84 363.93 280.84 363.92 293.84C363.84 297.212 365.102 300.478 367.43 302.92C376.33 312.4 380.04 323.71 379.96 336.62C379.79 364.27 379.96 391.93 379.82 419.62C379.82 423.62 380.63 425.07 384.94 424.95C396.94 424.616 408.94 424.596 420.94 424.89C425.08 424.98 425.84 423.57 425.82 419.8C425.65 392.5 425.72 365.19 425.72 337.87ZM210 156.15C212.41 147.62 207.3 141.82 199.66 136.48C186.43 127.24 173.73 117.24 160.82 107.55C156.12 104.02 156.11 104.01 154.07 109.29C147.55 126.09 137.01 138.91 119.17 144.45C111.799 146.584 104.124 147.476 96.46 147.09C94.77 147.09 92.74 146.4 92.46 149.37C91.13 164.32 92.74 178.65 101.2 191.54C114.48 211.78 144.38 222.11 168.49 214.85C191.51 207.91 211.45 186.56 210 156.15ZM63.18 424.8C78.49 424.8 93.8 424.68 109.11 424.89C112.82 424.94 113.91 423.98 113.86 420.19C113.66 402.723 113.66 385.246 113.86 367.76C113.86 364 112.86 363 109.1 363.02C78.3133 363.16 47.52 363.16 16.72 363.02C13.24 363.02 12.19 364.02 12.23 367.5C12.39 385.14 12.39 402.783 12.23 420.43C12.23 423.96 13.29 424.9 16.74 424.86C32.22 424.7 47.7 424.8 63.18 424.8ZM57.87 283.34V220.39C57.87 212.77 57.01 212.21 49.58 215L48.65 215.35C37.8951 219.797 28.69 227.316 22.1856 236.967C15.6811 246.618 12.1661 257.972 12.08 269.61C12.0267 290.09 12 310.573 12 331.06C12 336.89 12.14 342.71 12.24 348.54C12.3 351.76 13.7 352.98 17.17 352.91C29.17 352.68 41.17 352.62 53.17 352.91C57.4 353.02 58 351.43 57.98 347.77C57.8 326.31 57.87 304.82 57.87 283.34ZM158.87 363.1C148.71 363.1 138.55 363.24 128.39 363.02C125.02 362.95 124.16 364.07 124.18 367.29C124.307 385.116 124.307 402.943 124.18 420.77C124.18 423.98 125.03 425.06 128.39 425.01C141.54 424.81 154.71 425.01 167.86 424.87C182.7 424.69 193.27 414.35 193.71 399.42C194.02 388.6 193.71 377.77 193.87 366.94C193.93 363.8 192.87 363 189.87 363.04C179.54 363.19 169.21 363.1 158.88 363.1H158.87ZM337.35 288.76C335.89 287.03 335.22 286.12 334.44 285.33C316.86 267.59 298.87 250.23 281.82 231.99C272.24 221.75 261 215.22 247.93 211.09C245.02 210.18 243.93 210.15 243.98 213.78C244.14 237.426 244.14 261.073 243.98 284.72C243.98 288.14 245.17 288.85 248.32 288.83C265.47 288.69 282.62 288.76 299.77 288.76H337.35ZM363.92 201.07C363.92 212.07 363.84 223.07 363.92 234.07C363.99 240.96 364.11 240.96 370.78 240.96C387.59 240.96 404.4 240.88 421.21 241.03C424.55 241.03 425.86 240.38 425.77 236.71C425.51 226.903 425.51 217.083 425.77 207.25C425.86 203.54 424.46 202.85 421.15 202.94C413.67 203.15 406.15 203.01 398.69 203.01C386 203 386 203 386 190.41C386 182.09 386.1 173.76 385.84 165.41C385.798 163.136 385.035 160.935 383.66 159.124C382.285 157.314 380.37 155.987 378.192 155.336C376.014 154.684 373.685 154.743 371.542 155.502C369.399 156.261 367.552 157.682 366.27 159.56C364.44 162.04 363.95 165 363.96 168.08C364 179.1 363.92 190.08 363.93 201.07H363.92ZM150.67 257C169.95 257.08 185.73 241.74 185.77 223C185.77 220 185.77 218.22 181.85 220C161.35 229.44 140.71 229.37 120.18 220.05C116.75 218.5 116.38 219.61 116.37 222.73C116.417 231.809 120.047 240.503 126.47 246.92C132.893 253.338 141.59 256.96 150.67 257Z" fill="#7C2A7E"/>
<path d="M92.43 201C92.13 197.42 90.73 194.54 89.43 191.74C84.2224 180.166 81.6179 167.59 81.8 154.9C81.8 146.99 81.59 146.99 73.96 146.99H13.49C12.32 146.99 11.15 146.99 9.99 146.99C6.93 146.99 3.89 146.99 2.49 143.47C1.23 140.22 3.59 138.47 5.39 136.64C12.17 129.75 18.97 122.88 25.91 116.16C32 110.29 37.33 103.6 46 99.5796C40.26 97.0796 35.41 95.3396 30.9 92.9396C13.46 83.7196 4.13 68.9996 2.15 49.5596C1.49 42.9996 3.27 41.0896 9.92 40.9996C21.41 40.9096 32.92 40.7396 44.4 41.0796C48.52 41.1996 50.12 39.9096 51.16 36.0796C55.72 18.9996 66.36 7.55963 83.54 2.63963C87.0583 1.60899 90.7039 1.07714 94.37 1.05963C121.03 1.05963 147.68 0.949631 174.37 1.05963C200.7 1.19963 219.9 20.6496 219.93 47.0596C219.98 84.3796 219.79 121.69 220.03 159.06C220.25 172.28 216.634 185.281 209.62 196.49C208.87 197.69 207.19 198.94 208.1 200.4C209.01 201.86 210.85 200.99 212.27 201C222.93 201.12 233.63 200.58 244.27 201.36C260.92 202.57 274.82 210.27 286.33 222.08C307.143 243.413 328.253 264.463 349.66 285.23C350.81 286.35 352.03 287.38 353.95 289.1V282.89C353.95 245.41 353.95 207.926 353.95 170.44C353.95 165.44 354.4 160.44 356.85 155.92C359.031 151.901 362.477 148.715 366.654 146.855C370.832 144.996 375.506 144.568 379.951 145.637C384.397 146.706 388.365 149.213 391.24 152.768C394.114 156.324 395.735 160.729 395.85 165.3C396.17 172.78 396.21 180.3 395.92 187.78C395.76 191.78 396.72 193.3 401.05 193.14C410.2 192.79 419.37 192.98 428.53 193.05C434.46 193.05 435.9 194.54 435.9 200.46C435.9 276.1 435.9 351.736 435.9 427.37C435.9 433.8 434.77 434.88 428.26 434.91C414.6 434.97 400.94 435.17 387.26 434.91C382.46 434.82 380.05 436.33 378.64 441.01C374.46 454.85 366.43 465.67 352.8 471.61C347.25 473.918 341.28 475.049 335.27 474.93C292.96 474.93 250.65 475.02 208.33 474.98C186.07 474.98 169.53 462.4 163.7 440.88C162.5 436.45 160.7 434.93 155.95 434.98C128.3 435.26 100.64 435.2 72.95 434.98C68.95 434.98 67.89 436.12 67.95 439.98C68.21 450.3 67.83 460.64 68.14 470.98C68.26 475.3 65.86 474.91 63.14 474.8C60.62 474.7 57.86 475.66 57.99 471.1C58.3 460.45 57.99 449.78 58.16 439.1C58.22 435.8 57.22 434.83 53.95 434.87C39.29 435.02 24.63 434.96 9.95 434.87C3.38 435 2 433.64 2 427.07C2 374.43 1.84 321.78 2.15 269.14C2.37 231.14 33.15 201.14 71.29 201H92.43ZM68.28 282.11V341.57C68.28 352.74 68.28 352.74 79.42 352.74C105.42 352.74 131.42 352.66 157.35 352.83C161.15 352.83 162.35 351.83 162.04 348.06C161.819 343.729 161.819 339.39 162.04 335.06C162.71 309.93 178.04 292.78 202.87 289.46C211.98 288.25 221.17 289.13 230.32 289C232.72 289 233.9 288.53 233.89 285.73C233.797 261.916 233.797 238.103 233.89 214.29C233.89 211.91 233.09 211.08 230.72 211.1C219.9 211.18 209.07 211.16 198.25 211.1C196.12 211.1 195.34 211.68 195.6 214.02C195.945 217.341 196.049 220.683 195.91 224.02C195 251.02 169.31 271.41 142.84 266.16C119.2 261.47 104.01 240.88 106.27 215.96C106.66 211.59 105.41 210.96 101.63 211.08C92.15 211.3 82.63 211.38 73.16 211.08C69 210.94 68.23 212.44 68.26 216.2C68.36 238.15 68.28 260.13 68.28 282.11ZM271.34 464.91C292.65 464.91 313.97 464.91 335.28 464.91C354.83 464.91 369.82 450.01 369.86 430.56C369.92 398.42 369.92 366.28 369.86 334.14C369.86 314.14 354.86 299.06 334.86 299.04C292.4 299 249.94 299 207.48 299.04C189.35 299.04 176.07 310.19 172.64 327.89C171.2 335.35 172.3 342.83 172.07 350.3C171.99 353.18 173.82 352.97 175.7 352.97C182.7 352.97 189.7 352.97 196.7 352.97C202.41 352.97 203.84 354.37 203.91 359.97C204.01 368.13 204.033 376.29 203.98 384.45C203.98 391.1 204.73 397.84 203.45 404.39C200.55 419.27 191.45 428.84 177.19 433.67C174.72 434.51 172.06 434.72 173.19 438.87C177.59 454.65 190.51 464.87 206.89 464.87C228.38 465 249.86 464.91 271.34 464.91ZM209.94 131.67V120.14C209.94 96.1396 209.94 72.1396 209.94 48.1396C209.94 25.7496 195.55 11.0696 173.24 10.9696C148.087 10.8496 122.933 10.8496 97.78 10.9696C76.09 11.0596 62.78 22.7196 60.18 44.2896C59.55 49.4696 57.34 51.0896 52.47 51.0096C40.47 50.8196 28.47 51.0096 16.47 50.8596C13.14 50.8096 12.42 51.8596 13.13 54.8596C15.66 65.5096 21 74.2896 29.82 80.7696C36.6857 85.8705 44.9507 88.743 53.5 88.9996C56.16 89.0996 58.5 89.7696 59.6 92.4696C60.7 95.1696 59.19 96.9996 57.6 98.7196C55.2 101.26 52.65 103.66 50.18 106.14L21.88 134.55C24.6308 136.298 27.8544 137.153 31.11 137C55.26 137 79.42 137 103.57 137C114.432 136.986 124.876 132.808 132.751 125.326C140.626 117.844 145.332 107.627 145.9 96.7796C146.07 93.9296 146.08 91.0096 149.28 89.5896C152.48 88.1696 154.28 90.3196 156.4 91.8896C169.593 101.763 182.793 111.643 196 121.53C200.18 124.68 204.48 127.72 209.94 131.67ZM425.72 337.87C425.72 310.536 425.72 283.203 425.72 255.87C425.72 253.28 426.06 251.09 422.05 251.14C403.9 251.34 385.74 251.27 367.58 251.14C364.79 251.14 363.83 251.97 363.86 254.84C363.99 267.84 363.93 280.84 363.92 293.84C363.84 297.212 365.102 300.478 367.43 302.92C376.33 312.4 380.04 323.71 379.96 336.62C379.79 364.27 379.96 391.93 379.82 419.62C379.82 423.62 380.63 425.07 384.94 424.95C396.94 424.616 408.94 424.596 420.94 424.89C425.08 424.98 425.84 423.57 425.82 419.8C425.65 392.5 425.72 365.19 425.72 337.87ZM210 156.15C212.41 147.62 207.3 141.82 199.66 136.48C186.43 127.24 173.73 117.24 160.82 107.55C156.12 104.02 156.11 104.01 154.07 109.29C147.55 126.09 137.01 138.91 119.17 144.45C111.799 146.584 104.124 147.476 96.46 147.09C94.77 147.09 92.74 146.4 92.46 149.37C91.13 164.32 92.74 178.65 101.2 191.54C114.48 211.78 144.38 222.11 168.49 214.85C191.51 207.91 211.45 186.56 210 156.15ZM63.18 424.8C78.49 424.8 93.8 424.68 109.11 424.89C112.82 424.94 113.91 423.98 113.86 420.19C113.66 402.723 113.66 385.246 113.86 367.76C113.86 364 112.86 363 109.1 363.02C78.3133 363.16 47.52 363.16 16.72 363.02C13.24 363.02 12.19 364.02 12.23 367.5C12.39 385.14 12.39 402.783 12.23 420.43C12.23 423.96 13.29 424.9 16.74 424.86C32.22 424.7 47.7 424.8 63.18 424.8ZM57.87 283.34V220.39C57.87 212.77 57.01 212.21 49.58 215L48.65 215.35C37.8951 219.797 28.69 227.316 22.1856 236.967C15.6811 246.618 12.1661 257.972 12.08 269.61C12.0267 290.09 12 310.573 12 331.06C12 336.89 12.14 342.71 12.24 348.54C12.3 351.76 13.7 352.98 17.17 352.91C29.17 352.68 41.17 352.62 53.17 352.91C57.4 353.02 58 351.43 57.98 347.77C57.8 326.31 57.87 304.82 57.87 283.34ZM158.87 363.1C148.71 363.1 138.55 363.24 128.39 363.02C125.02 362.95 124.16 364.07 124.18 367.29C124.307 385.116 124.307 402.943 124.18 420.77C124.18 423.98 125.03 425.06 128.39 425.01C141.54 424.81 154.71 425.01 167.86 424.87C182.7 424.69 193.27 414.35 193.71 399.42C194.02 388.6 193.71 377.77 193.87 366.94C193.93 363.8 192.87 363 189.87 363.04C179.54 363.19 169.21 363.1 158.88 363.1H158.87ZM337.35 288.76C335.89 287.03 335.22 286.12 334.44 285.33C316.86 267.59 298.87 250.23 281.82 231.99C272.24 221.75 261 215.22 247.93 211.09C245.02 210.18 243.93 210.15 243.98 213.78C244.14 237.426 244.14 261.073 243.98 284.72C243.98 288.14 245.17 288.85 248.32 288.83C265.47 288.69 282.62 288.76 299.77 288.76H337.35ZM363.92 201.07C363.92 212.07 363.84 223.07 363.92 234.07C363.99 240.96 364.11 240.96 370.78 240.96C387.59 240.96 404.4 240.88 421.21 241.03C424.55 241.03 425.86 240.38 425.77 236.71C425.51 226.903 425.51 217.083 425.77 207.25C425.86 203.54 424.46 202.85 421.15 202.94C413.67 203.15 406.15 203.01 398.69 203.01C386 203 386 203 386 190.41C386 182.09 386.1 173.76 385.84 165.41C385.798 163.136 385.035 160.935 383.66 159.124C382.285 157.314 380.37 155.987 378.192 155.336C376.014 154.684 373.685 154.743 371.542 155.502C369.399 156.261 367.552 157.682 366.27 159.56C364.44 162.04 363.95 165 363.96 168.08C364 179.1 363.92 190.08 363.93 201.07H363.92ZM150.67 257C169.95 257.08 185.73 241.74 185.77 223C185.77 220 185.77 218.22 181.85 220C161.35 229.44 140.71 229.37 120.18 220.05C116.75 218.5 116.38 219.61 116.37 222.73C116.417 231.809 120.047 240.503 126.47 246.92C132.893 253.338 141.59 256.96 150.67 257Z" stroke="#7B2880" stroke-width="2" mask="url(#path-1-outside-1_109_36)"/>
<path d="M233.5 380.906V380.916L233.44 380.896V381.59C233.44 387.483 233.431 393.375 233.422 399.265C233.404 411.044 233.387 422.819 233.44 434.592L233.44 434.592C233.45 436.757 233.649 438.53 234.075 439.903C234.501 441.277 235.17 442.298 236.155 442.875C237.14 443.453 238.348 443.531 239.734 443.218C241.117 442.906 242.726 442.194 244.571 441.122L244.572 441.122C274.625 423.615 304.652 406.081 334.653 388.521L334.653 388.521C336.537 387.416 337.985 386.362 338.968 385.322C339.951 384.281 340.509 383.209 340.514 382.081C340.519 380.951 339.971 379.881 338.996 378.842C338.023 377.804 336.585 376.756 334.713 375.658L334.713 375.658C304.853 358.185 274.976 340.742 245.083 323.328C243.109 322.161 241.405 321.378 239.953 321.022C238.5 320.666 237.242 320.726 236.224 321.328C235.209 321.928 234.534 323.007 234.111 324.463C233.688 325.918 233.5 327.81 233.5 330.13V330.23V330.331V330.431V330.532V330.632V330.733V330.833V330.934V331.035V331.135V331.236V331.336V331.437V331.537V331.638V331.738V331.839V331.939V332.04V332.141V332.241V332.342V332.442V332.543V332.643V332.744V332.844V332.945V333.045V333.146V333.247V333.347V333.448V333.548V333.649V333.749V333.85V333.95V334.051V334.152V334.252V334.353V334.453V334.554V334.654V334.755V334.855V334.956V335.056V335.157V335.258V335.358V335.459V335.559V335.66V335.76V335.861V335.961V336.062V336.162V336.263V336.364V336.464V336.565V336.665V336.766V336.866V336.967V337.067V337.168V337.268V337.369V337.47V337.57V337.671V337.771V337.872V337.972V338.073V338.173V338.274V338.374V338.475V338.576V338.676V338.777V338.877V338.978V339.078V339.179V339.279V339.38V339.48V339.581V339.682V339.782V339.883V339.983V340.084V340.184V340.285V340.385V340.486V340.587V340.687V340.788V340.888V340.989V341.089V341.19V341.29V341.391V341.491V341.592V341.693V341.793V341.894V341.994V342.095V342.195V342.296V342.396V342.497V342.597V342.698V342.799V342.899V343V343.1V343.201V343.301V343.402V343.502V343.603V343.703V343.804V343.905V344.005V344.106V344.206V344.307V344.407V344.508V344.608V344.709V344.809V344.91V345.011V345.111V345.212V345.312V345.413V345.513V345.614V345.714V345.815V345.915V346.016V346.117V346.217V346.318V346.418V346.519V346.619V346.72V346.82V346.921V347.021V347.122V347.223V347.323V347.424V347.524V347.625V347.725V347.826V347.926V348.027V348.128V348.228V348.329V348.429V348.53V348.63V348.731V348.831V348.932V349.032V349.133V349.234V349.334V349.435V349.535V349.636V349.736V349.837V349.937V350.038V350.138V350.239V350.34V350.44V350.541V350.641V350.742V350.842V350.943V351.043V351.144V351.244V351.345V351.446V351.546V351.647V351.747V351.848V351.948V352.049V352.149V352.25V352.35V352.451V352.552V352.652V352.753V352.853V352.954V353.054V353.155V353.255V353.356V353.456V353.557V353.658V353.758V353.859V353.959V354.06V354.16V354.261V354.361V354.462V354.563V354.663V354.764V354.864V354.965V355.065V355.166V355.266V355.367V355.467V355.568V355.669V355.769V355.87V355.97V356.071V356.171V356.272V356.372V356.473V356.573V356.674V356.775V356.875V356.976V357.076V357.177V357.277V357.378V357.478V357.579V357.679V357.78V357.881V357.981V358.082V358.182V358.283V358.383V358.484V358.584V358.685V358.785V358.886V358.987V359.087V359.188V359.288V359.389V359.489V359.59V359.69V359.791V359.891V359.992V360.093V360.193V360.294V360.394V360.495V360.595V360.696V360.796V360.897V360.998V361.098V361.199V361.299V361.4V361.5V361.601V361.701V361.802V361.902V362.003V362.104V362.204V362.305V362.405V362.506V362.606V362.707V362.807V362.908V363.008V363.109V363.21V363.31V363.411V363.511V363.612V363.712V363.813V363.913V364.014V364.114V364.215V364.316V364.416V364.517V364.617V364.718V364.818V364.919V365.019V365.12V365.22V365.321V365.422V365.522V365.623V365.723V365.824V365.924V366.025V366.125V366.226V366.326V366.427V366.528V366.628V366.729V366.829V366.93V367.03V367.131V367.231V367.332V367.433V367.533V367.634V367.734V367.835V367.935V368.036V368.136V368.237V368.337V368.438V368.539V368.639V368.74V368.84V368.941V369.041V369.142V369.242V369.343V369.443V369.544V369.645V369.745V369.846V369.946V370.047V370.147V370.248V370.348V370.449V370.549V370.65V370.751V370.851V370.952V371.052V371.153V371.253V371.354V371.454V371.555V371.655V371.756V371.857V371.957V372.058V372.158V372.259V372.359V372.46V372.56V372.661V372.761V372.862V372.963V373.063V373.164V373.264V373.365V373.465V373.566V373.666V373.767V373.868V373.968V374.069V374.169V374.27V374.37V374.471V374.571V374.672V374.772V374.873V374.974V375.074V375.175V375.275V375.376V375.476V375.577V375.677V375.778V375.878V375.979V376.08V376.18V376.281V376.381V376.482V376.582V376.683V376.783V376.884V376.984V377.085V377.186V377.286V377.387V377.487V377.588V377.688V377.789V377.889V377.99V378.09V378.191V378.292V378.392V378.493V378.593V378.694V378.794V378.895V378.995V379.096V379.196V379.297V379.398V379.498V379.599V379.699V379.8V379.9V380.001V380.101V380.202V380.302V380.403V380.504V380.604V380.705V380.805V380.906ZM265.952 348.149C285.331 359.449 304.601 370.685 324.177 382.09L244.79 428.369V335.81C251.871 339.939 258.919 344.048 265.952 348.149Z" fill="#7C2A7E" stroke="#7B2880"/>
</svg>
