<svg width="202" height="49" viewBox="0 0 202 49" fill="none" xmlns="http://www.w3.org/2000/svg">
<path d="M61.6201 37.4073C59.6652 37.4073 57.8597 36.9728 56.2034 36.104C54.5472 35.2352 53.2167 33.9862 52.2121 32.3571C51.2347 30.728 50.746 28.8138 50.746 26.6145C50.746 24.4153 51.2347 22.5011 52.2121 20.872C53.2167 19.2429 54.5472 17.9939 56.2034 17.1251C57.8597 16.2562 59.6652 15.8218 61.6201 15.8218C63.0592 15.8218 64.2946 16.0119 65.3263 16.392C66.3852 16.745 67.3627 17.2065 68.2587 17.7767C68.8017 18.1297 69.0732 18.6048 69.0732 19.2022C69.0732 19.6095 68.9103 19.9896 68.5845 20.3425C68.2858 20.6684 67.9329 20.8313 67.5256 20.8313C67.2269 20.8313 66.9283 20.7498 66.6296 20.5869C65.7336 20.1253 64.9598 19.7995 64.3081 19.6095C63.6837 19.3922 62.8963 19.2836 61.946 19.2836C59.6109 19.2836 57.7782 19.9624 56.4478 21.32C55.1173 22.6504 54.4521 24.4153 54.4521 26.6145C54.4521 28.8138 55.1173 30.5922 56.4478 31.9498C57.7782 33.2802 59.6109 33.9455 61.946 33.9455C62.8963 33.9455 63.6837 33.8504 64.3081 33.6604C64.9598 33.4432 65.7336 33.1038 66.6296 32.6422C66.9283 32.4793 67.2269 32.3978 67.5256 32.3978C67.9329 32.3978 68.2858 32.5743 68.5845 32.9273C68.9103 33.2531 69.0732 33.6196 69.0732 34.0269C69.0732 34.6242 68.8017 35.0994 68.2587 35.4524C67.3627 36.0225 66.3852 36.4977 65.3263 36.8778C64.2946 37.2308 63.0592 37.4073 61.6201 37.4073ZM75.5571 37.2036C75.0413 37.2036 74.6068 37.0272 74.2539 36.6742C73.9009 36.3212 73.7244 35.8868 73.7244 35.3709V17.8989C73.7244 17.383 73.9009 16.9486 74.2539 16.5956C74.6068 16.2155 75.0413 16.0255 75.5571 16.0255C76.073 16.0255 76.5074 16.2155 76.8604 16.5956C77.2405 16.9486 77.4306 17.383 77.4306 17.8989V19.6502C79.3312 17.0979 81.4626 15.8218 83.8248 15.8218H84.0284C84.5443 15.8218 84.9651 15.9983 85.291 16.3513C85.6439 16.7042 85.8204 17.1387 85.8204 17.6545C85.8204 18.1704 85.6439 18.5913 85.291 18.9171C84.938 19.2429 84.49 19.4058 83.947 19.4058H83.7433C82.44 19.4058 81.2454 19.7316 80.1593 20.3833C79.0733 21.0078 78.1637 21.8766 77.4306 22.9898V35.3709C77.4306 35.8868 77.2405 36.3212 76.8604 36.6742C76.5074 37.0272 76.073 37.2036 75.5571 37.2036ZM98.0045 37.4073C94.6921 37.4073 92.0991 36.4705 90.2256 34.5971C88.3793 32.6965 87.4562 30.0356 87.4562 26.6145C87.4562 24.6868 87.8092 22.9084 88.5151 21.2793C89.221 19.6502 90.3071 18.3333 91.7733 17.3287C93.2395 16.3241 95.045 15.8218 97.19 15.8218C99.1992 15.8218 100.937 16.297 102.403 17.2473C103.869 18.1704 104.982 19.4194 105.743 20.9942C106.503 22.5418 106.883 24.2388 106.883 26.0851C106.883 26.601 106.707 27.0354 106.354 27.3884C106.028 27.7413 105.58 27.9178 105.01 27.9178H91.2031C91.4203 29.8184 92.1262 31.2982 93.3209 32.3571C94.5156 33.416 96.1854 33.9455 98.3304 33.9455C99.4707 33.9455 100.462 33.8368 101.303 33.6196C102.172 33.4024 103.014 33.0902 103.829 32.6829C104.046 32.5743 104.29 32.52 104.562 32.52C104.996 32.52 105.376 32.6693 105.702 32.968C106.028 33.2667 106.191 33.6468 106.191 34.1084C106.191 34.7057 105.838 35.208 105.132 35.6153C104.073 36.2126 103.028 36.6606 101.996 36.9593C100.964 37.2579 99.6336 37.4073 98.0045 37.4073ZM103.218 24.904C103.136 23.5736 102.783 22.4604 102.159 21.5644C101.561 20.6684 100.815 20.0167 99.9187 19.6095C99.0227 19.175 98.1132 18.9578 97.19 18.9578C96.2669 18.9578 95.3573 19.175 94.4613 19.6095C93.5653 20.0167 92.8186 20.6684 92.2213 21.5644C91.6239 22.4604 91.2845 23.5736 91.2031 24.904H103.218ZM117.081 37.4073C115.887 37.4073 114.774 37.1629 113.742 36.6742C112.737 36.1855 111.936 35.4795 111.339 34.5564C110.742 33.6061 110.443 32.52 110.443 31.2982C110.443 29.289 111.23 27.687 112.805 26.4924C114.407 25.2977 116.742 24.7004 119.81 24.7004H124.738V24.3745C124.738 22.5825 124.29 21.2928 123.394 20.5055C122.525 19.7181 121.154 19.3244 119.281 19.3244C118.249 19.3244 117.326 19.4058 116.511 19.5687C115.724 19.7316 114.841 19.976 113.864 20.3018C113.647 20.3561 113.47 20.3833 113.335 20.3833C112.927 20.3833 112.574 20.2339 112.276 19.9353C111.977 19.6366 111.828 19.2701 111.828 18.8356C111.828 18.1025 112.181 17.5867 112.887 17.288C115.194 16.3105 117.543 15.8218 119.932 15.8218C121.806 15.8218 123.381 16.2019 124.657 16.9622C125.96 17.7224 126.91 18.7135 127.508 19.9353C128.132 21.1299 128.444 22.4332 128.444 23.8451V35.3709C128.444 35.8868 128.254 36.3212 127.874 36.6742C127.521 37.0272 127.087 37.2036 126.571 37.2036C126.055 37.2036 125.621 37.0272 125.268 36.6742C124.915 36.3212 124.738 35.8868 124.738 35.3709V34.312C122.729 36.3755 120.177 37.4073 117.081 37.4073ZM118.466 34.1491C119.661 34.1491 120.815 33.864 121.928 33.2938C123.041 32.6965 123.978 31.9634 124.738 31.0945V27.6735H120.299C116.199 27.6735 114.149 28.7459 114.149 30.8909C114.149 31.8684 114.475 32.6558 115.127 33.2531C115.805 33.8504 116.919 34.1491 118.466 34.1491ZM141.347 37.4073C137.383 37.4073 135.401 35.6153 135.401 32.0313V19.4058H132.509C132.292 19.4058 132.102 19.3379 131.939 19.2022C131.803 19.0393 131.735 18.8492 131.735 18.632C131.735 18.3605 131.858 18.1297 132.102 17.9396L137.641 12.5229C137.885 12.2785 138.116 12.1564 138.333 12.1564C138.55 12.1564 138.727 12.2378 138.863 12.4007C139.026 12.5636 139.107 12.7537 139.107 12.9709V16.2291H143.709C144.171 16.2291 144.551 16.3784 144.85 16.6771C145.148 16.9758 145.298 17.3559 145.298 17.8175C145.298 18.2519 145.148 18.632 144.85 18.9578C144.551 19.2565 144.171 19.4058 143.709 19.4058H139.107V31.7055C139.107 32.7644 139.351 33.4432 139.84 33.7418C140.356 34.0133 140.994 34.1491 141.754 34.1491C142.297 34.1491 142.84 34.0676 143.383 33.9047C143.492 33.8776 143.601 33.8504 143.709 33.8233C143.845 33.7961 144.008 33.7825 144.198 33.7825C144.578 33.7825 144.917 33.9319 145.216 34.2305C145.515 34.5021 145.664 34.8415 145.664 35.2487C145.664 35.8732 145.352 36.3484 144.727 36.6742C143.668 37.1629 142.542 37.4073 141.347 37.4073ZM151.481 11.9935C150.911 11.9935 150.422 11.7898 150.015 11.3825C149.608 10.9753 149.404 10.4865 149.404 9.91636V9.75345C149.404 9.18327 149.608 8.69454 150.015 8.28727C150.422 7.88 150.911 7.67636 151.481 7.67636H151.726C152.296 7.67636 152.785 7.88 153.192 8.28727C153.599 8.69454 153.803 9.18327 153.803 9.75345V9.91636C153.803 10.4865 153.599 10.9753 153.192 11.3825C152.785 11.7898 152.296 11.9935 151.726 11.9935H151.481ZM151.563 37.2036C151.047 37.2036 150.613 37.0272 150.26 36.6742C149.907 36.3212 149.73 35.8868 149.73 35.3709V17.8989C149.73 17.383 149.907 16.9486 150.26 16.5956C150.613 16.2155 151.047 16.0255 151.563 16.0255C152.106 16.0255 152.554 16.2019 152.907 16.5549C153.26 16.9079 153.436 17.3559 153.436 17.8989V35.3709C153.436 35.8868 153.246 36.3212 152.866 36.6742C152.513 37.0272 152.079 37.2036 151.563 37.2036ZM166.959 37.4073C165.465 37.4073 164.162 37.0543 163.049 36.3484C161.963 35.6424 161.121 34.6785 160.524 33.4567C159.954 32.2349 159.668 30.8909 159.668 29.4247V17.8582C159.668 17.3423 159.845 16.9079 160.198 16.5549C160.578 16.2019 161.026 16.0255 161.542 16.0255C162.058 16.0255 162.492 16.2019 162.845 16.5549C163.198 16.9079 163.375 17.3423 163.375 17.8582V29.0175C163.375 32.3299 164.868 33.9862 167.855 33.9862C169.212 33.9862 170.42 33.6332 171.479 32.9273C172.565 32.2213 173.584 31.271 174.534 30.0764V17.8582C174.534 17.3423 174.71 16.9079 175.063 16.5549C175.444 16.2019 175.892 16.0255 176.407 16.0255C176.923 16.0255 177.358 16.2019 177.711 16.5549C178.064 16.9079 178.24 17.3423 178.24 17.8582V35.3302C178.24 35.8461 178.064 36.2941 177.711 36.6742C177.358 37.0272 176.923 37.2036 176.407 37.2036C175.892 37.2036 175.444 37.0272 175.063 36.6742C174.71 36.2941 174.534 35.8461 174.534 35.3302V33.6604C173.502 34.8007 172.389 35.7103 171.194 36.3891C170 37.0679 168.588 37.4073 166.959 37.4073ZM191.41 37.4073C188.695 37.4073 186.224 36.7964 183.998 35.5745C183.536 35.2487 183.306 34.8007 183.306 34.2305C183.306 33.7961 183.455 33.416 183.754 33.0902C184.052 32.7644 184.432 32.6015 184.894 32.6015C185.138 32.6015 185.383 32.6558 185.627 32.7644C186.496 33.1445 187.365 33.4432 188.234 33.6604C189.102 33.8776 190.08 33.9862 191.166 33.9862C194.18 33.9862 195.687 33.0223 195.687 31.0945C195.687 30.4701 195.334 29.9949 194.628 29.6691C193.949 29.3433 192.822 28.9767 191.247 28.5695C189.645 28.1893 188.315 27.7956 187.256 27.3884C186.224 26.9811 185.328 26.3702 184.568 25.5556C183.835 24.7139 183.469 23.6143 183.469 22.2567C183.469 20.3561 184.147 18.8085 185.505 17.6138C186.89 16.4192 188.858 15.8218 191.41 15.8218C193.501 15.8218 195.469 16.1612 197.316 16.84C197.696 16.9486 197.981 17.1522 198.171 17.4509C198.388 17.7496 198.497 18.0618 198.497 18.3876C198.497 18.8221 198.334 19.2022 198.008 19.528C197.709 19.8538 197.329 20.0167 196.868 20.0167C196.732 20.0167 196.556 19.9896 196.338 19.9353C194.764 19.4465 193.216 19.2022 191.695 19.2022C190.229 19.2022 189.075 19.4737 188.234 20.0167C187.419 20.5326 187.012 21.2114 187.012 22.0531C187.012 22.8676 187.392 23.465 188.152 23.8451C188.912 24.2252 190.093 24.5918 191.695 24.9447C193.297 25.352 194.601 25.7593 195.605 26.1665C196.61 26.5467 197.465 27.1576 198.171 27.9993C198.904 28.841 199.271 29.9678 199.271 31.3796C199.271 33.1173 198.578 34.5564 197.194 35.6967C195.836 36.8371 193.908 37.4073 191.41 37.4073Z" fill="#F3F1F3"/>
<circle cx="151.705" cy="10.3409" r="2.70455" fill="url(#paint0_linear_14_34)"/>
<path d="M18.1707 46.1349H11.2734C10.7581 46.1349 10.4309 45.8825 10.3093 45.3754C10.204 44.9356 10.285 44.5359 10.6023 44.2015C10.6729 44.1267 10.758 44.0673 10.8523 44.0269C10.9467 43.9865 11.0483 43.9659 11.1508 43.9665C11.191 43.9665 11.2311 43.9665 11.271 43.9665H24.9345C25.521 43.9665 25.9095 43.6042 25.9546 43.0126C25.9744 42.7537 25.932 42.5054 25.7986 42.2808C25.6198 41.9782 25.3645 41.8101 25.003 41.8106C23.1122 41.813 21.2213 41.813 19.3304 41.8106C17.2275 41.8106 15.124 41.8039 13.0218 41.814C12.1132 41.8184 11.4227 41.4276 10.9157 40.6983C10.3326 39.8598 10.1651 38.9184 10.3232 37.9157C10.4321 37.2238 10.7047 36.6044 11.1898 36.0929C11.664 35.5928 12.2368 35.3182 12.9382 35.3182C17.5287 35.3211 22.119 35.3216 26.7091 35.3196C27.2127 35.3196 27.5384 35.5679 27.6632 36.0615C27.7728 36.495 27.699 36.893 27.3944 37.2318C27.3222 37.3136 27.2333 37.3788 27.1338 37.423C27.0342 37.4673 26.9264 37.4894 26.8175 37.488C26.7414 37.488 26.6652 37.488 26.5892 37.488H13.0475C12.4531 37.4885 12.0488 37.8781 12.0205 38.4799C12.0087 38.7226 12.0503 38.9537 12.1695 39.1662C12.3445 39.4778 12.5995 39.6456 12.9692 39.6451C16.9467 39.642 20.9253 39.6507 24.9016 39.6379C25.8746 39.635 26.5928 40.0484 27.1202 40.8393C28.0261 42.1965 27.8802 44.1841 26.7837 45.3657C26.3178 45.8673 25.7419 46.1385 25.0458 46.1364C22.7535 46.1328 20.4618 46.1323 18.1707 46.1349Z" fill="url(#paint1_linear_14_34)"/>
<path d="M8.72116 31.9149C6.39289 29.4353 4.43935 26.064 4.00159 22.6572C2.89614 14.0542 8.75016 6.20742 17.0769 5.13095C25.4036 4.05448 33.0499 10.1559 34.1554 18.759C34.7928 23.7201 33.116 28.4297 29.9851 31.7345" stroke="url(#paint2_linear_14_34)" stroke-width="6.36364" stroke-linecap="round"/>
<ellipse cx="18.971" cy="30.3864" rx="2.69633" ry="2.70455" fill="url(#paint3_linear_14_34)"/>
<defs>
<linearGradient id="paint0_linear_14_34" x1="151.705" y1="7.63635" x2="151.694" y2="13.0454" gradientUnits="userSpaceOnUse">
<stop stop-color="#7B2880"/>
<stop offset="1" stop-color="#D9237A"/>
</linearGradient>
<linearGradient id="paint1_linear_14_34" x1="18.9897" y1="35.3182" x2="18.977" y2="46.1364" gradientUnits="userSpaceOnUse">
<stop stop-color="#7B2880"/>
<stop offset="1" stop-color="#D9237A"/>
</linearGradient>
<linearGradient id="paint2_linear_14_34" x1="18.8817" y1="6.004" x2="17.5862" y2="36.378" gradientUnits="userSpaceOnUse">
<stop stop-color="#7A277F"/>
<stop offset="1" stop-color="#E42279"/>
</linearGradient>
<linearGradient id="paint3_linear_14_34" x1="18.971" y1="27.6818" x2="18.9607" y2="33.0909" gradientUnits="userSpaceOnUse">
<stop stop-color="#7B2880"/>
<stop offset="1" stop-color="#D9237A"/>
</linearGradient>
</defs>
</svg>
