<svg width="1491" height="1608" viewBox="0 0 1491 1608" fill="none" xmlns="http://www.w3.org/2000/svg">
<mask id="path-1-outside-1_109_20" maskUnits="userSpaceOnUse" x="0" y="0" width="1491" height="1608" fill="black">
<rect fill="white" width="1491" height="1608"/>
<path d="M1485.12 1537.85C1485.12 1552.67 1485.12 1567.5 1485.12 1582.32C1485.17 1597.42 1474.04 1605.97 1459.5 1601.77C1451.9 1599.57 1448.05 1593.85 1447.1 1586.41C1445.22 1571.83 1445.43 1557.14 1445.84 1542.5C1446.78 1509.12 1446.47 1475.89 1438.16 1443.23C1417.61 1362.55 1369.62 1303.63 1296.51 1264.72C1264.51 1247.72 1230.38 1236.81 1194.63 1231.25C1183.36 1229.5 1171.93 1228.59 1160.52 1227.63C1123.24 1224.49 1085.98 1226.42 1048.71 1226.74C1037.71 1226.84 1031.04 1233.97 1026.11 1242.59C1019.27 1254.59 1014.39 1267.59 1008.77 1280.14C973.983 1357.99 939.246 1435.86 904.56 1513.75C902.47 1518.29 899.83 1522.55 896.7 1526.45C887.58 1538.09 878.46 1538.09 868.15 1528C834.09 1494.66 800.56 1460.8 767.03 1426.93C760.94 1420.78 756.84 1412.93 752.27 1405.61C749.84 1401.7 748.5 1401.87 745.36 1405.03C706.853 1443.81 668.25 1482.5 629.55 1521.11C624.64 1526.01 619.49 1530.64 613 1533.3C604.39 1536.83 600.66 1534.97 595 1528.3C586.08 1517.8 582.42 1504.47 576.67 1492.3C568.67 1475.3 561.35 1458.05 553.76 1440.9C543.62 1418.01 533.483 1395.12 523.35 1372.22C515.2 1353.85 507 1335.5 498.91 1317.11C489.97 1296.78 481.19 1276.37 472.21 1256.11C467.74 1245.99 463.1 1235.94 452.39 1230.55C446.489 1227.6 439.987 1226.05 433.39 1226.03C417.23 1225.86 401.06 1225.84 384.9 1226.18C369 1226.52 353.07 1226.9 337.22 1228.11C299.78 1230.94 263.02 1237.11 227.77 1250.87C199.2 1262.03 172.35 1276.29 148.53 1295.48C100.61 1334.06 69.1597 1383.48 54.3097 1443.3C50.4586 1458.77 47.8173 1474.51 46.4097 1490.39C44.0597 1516.97 45.7697 1543.6 45.3197 1570.21C45.1897 1577.65 45.0697 1585.07 42.3197 1592.15C39.7197 1598.96 34.5797 1602.37 27.4797 1602.86C19.8597 1603.39 13.2697 1601.51 9.22965 1594.28C6.46965 1589.28 5.61965 1583.88 5.56965 1578.37C5.37965 1554.55 4.46965 1530.69 5.43965 1506.9C8.43965 1432.44 33.0597 1366.03 80.6796 1308.24C103.75 1280.24 131.47 1258.18 162.68 1240.24C187.966 1225.86 214.77 1214.33 242.6 1205.86C261.134 1199.95 280.131 1195.6 299.39 1192.86C315.28 1190.71 331.22 1189.66 347.23 1188.72C366.7 1187.58 386.14 1187.81 405.58 1188.27C414.19 1188.47 422.82 1189.06 431.44 1188.9C449.65 1188.55 464.72 1181.43 475.04 1166.29C489.04 1145.78 502.26 1124.76 515.97 1104.06C525.09 1090.29 534.376 1076.63 543.83 1063.06C545.22 1061.06 545.01 1060.22 543.55 1058.59C528.88 1042.27 514.66 1025.59 499.65 1009.52C480.088 988.662 462.278 966.229 446.4 942.449C434.209 924.06 423.213 904.908 413.48 885.109C402.463 862.774 393.215 839.61 385.82 815.829C380.189 797.892 375.703 779.615 372.39 761.109C370.49 750.439 369.02 739.699 367.16 729.049C365.52 719.639 358.41 713.319 351.16 707.899C336.64 697.019 320.36 688.619 305.86 677.639C291.81 667.009 283.21 653.129 281.41 635.319C280.75 628.809 281.08 622.319 281.06 615.779C280.97 585.429 283.39 555.059 281.13 524.779C280.53 516.779 279.99 508.669 279.6 500.699C278.6 481.129 283.6 462.749 295.88 446.999C303.661 437.234 313.094 428.908 323.75 422.399C341.58 411.209 349.87 395.399 349.53 374.399C349.06 345.079 348.96 315.749 349.44 286.399C349.65 273.939 350.85 261.399 352.22 248.989C357.59 199.989 379.39 159.229 413.13 124.159C444.7 91.3387 482.83 70.1587 527.13 60.3687C537.69 58.0287 548.63 57.5087 559.29 55.5487C578.76 51.9687 597.29 45.1687 616.15 39.2087C638.73 32.0487 661.58 25.7987 684.75 20.7387C705.16 16.2887 725.64 12.4487 746.39 9.96872C762.51 8.01872 778.6 6.66872 794.79 5.77872C806.79 5.11872 818.72 4.77872 830.66 5.15872C875.42 6.41872 918.37 15.2287 957.82 37.3987C971.554 45.2105 984.374 54.5316 996.04 65.1887C1016.18 83.3587 1031.62 104.909 1043.51 129.069C1054.12 150.903 1061.42 174.195 1065.17 198.179C1067.83 214.459 1069.25 230.839 1070.35 247.309C1072.48 279.499 1073.12 311.689 1073.22 343.919C1073.22 355.409 1073.38 366.919 1074.32 378.359C1075.22 389.459 1081.14 399.559 1093.68 403.929C1104.06 407.559 1114.56 410.769 1123.23 418.009C1131.9 425.249 1137.34 434.379 1138.07 445.499C1140.73 485.719 1140.46 526.009 1140.27 566.279C1140.15 591.099 1139.57 615.909 1139.03 640.719C1138.69 655.899 1136.28 670.509 1126.18 682.789C1120.18 690.139 1113.48 696.789 1105.09 701.359C1091.6 708.679 1085.26 719.579 1083.93 735.069C1082.04 757.069 1077.72 778.769 1072.56 800.309C1066.03 827.522 1057.25 854.144 1046.3 879.899C1035.74 904.489 1023.18 928.178 1008.77 950.729C997.216 968.83 984.524 986.178 970.77 1002.67C960.618 1015.15 949.827 1027.09 938.44 1038.46C936.1 1040.76 935.94 1042.34 937.84 1045.1C967.58 1088.3 996.99 1131.72 1027.37 1174.48C1034.82 1184.97 1046.17 1186.94 1057.83 1187.75C1080.56 1189.32 1103.36 1189.11 1126.13 1189.89C1141.85 1190.42 1157.58 1190.89 1173.28 1191.89C1222.71 1194.89 1270.28 1205.44 1314.51 1228.47C1397.98 1271.97 1451.16 1339.42 1474.06 1430.82C1482.28 1463.45 1483.99 1496.82 1484.29 1530.34C1484.29 1532.84 1484.29 1535.34 1484.29 1537.84L1485.12 1537.85ZM1034.34 330.409H1034.4C1034.4 326.579 1034.4 322.739 1034.4 318.909C1034.28 286.319 1035.67 253.679 1031.13 221.239C1028.01 198.899 1022.55 177.189 1013.65 156.399C992.91 108.019 958.56 73.9487 908.19 57.0187C884.7 49.1487 860.35 45.6287 835.73 44.0187C816.802 42.9171 797.821 43.1711 778.93 44.7787C760.46 46.1787 742.16 48.3687 723.98 51.5887C685.65 58.3787 648.26 68.8287 611.62 81.8587C592.91 88.5087 574.25 94.8587 554.21 96.0287C533.78 97.1887 514.57 103.259 496.11 111.659C473.067 122.038 452.455 137.128 435.6 155.959C425.867 166.884 417.384 178.861 410.31 191.669C393.44 221.919 387.77 255.019 387.38 289.019C386.89 330.669 387.25 372.329 387.27 414.019C387.27 423.889 383.57 431.779 374.79 436.569C367.72 440.439 360.64 444.269 353.9 448.689C345.37 454.299 336.36 459.379 329.84 467.499C320.75 478.819 318.38 491.869 318.84 506.209C319.6 530.519 318.93 554.859 319.5 579.209C319.84 594.119 317.12 608.989 319.3 623.899C321.55 639.339 329.3 650.969 342.89 658.759C356.18 666.369 370.51 670.979 385.46 673.839C396.66 675.989 403.64 682.009 404.56 693.899C406.02 712.739 408.17 731.489 411.16 750.159C420.72 809.879 440.78 865.719 473.65 916.569C495.828 950.754 523 981.428 554.26 1007.57C574.12 1024.3 594.95 1039.64 617.46 1052.57C647.86 1070.07 680.19 1081.9 715.39 1085.22C756.33 1089.07 795.03 1081.22 831.95 1063.59C851.659 1054.11 870.245 1042.45 887.36 1028.83C909.027 1011.78 928.749 992.391 946.17 971.019C961.776 951.96 975.84 931.689 988.23 910.399C1006.05 879.8 1020.07 847.138 1029.97 813.139C1036.97 788.979 1042.05 764.399 1044.31 739.249C1045.63 724.619 1047.06 710.039 1047.38 695.319C1047.57 686.719 1050.9 676.619 1062.66 673.919C1066.66 672.989 1070.66 671.919 1074.6 670.669C1093.22 664.559 1101.5 655.809 1103.2 634.549C1104.87 613.769 1104.2 592.919 1104.2 572.099C1104.2 536.779 1105.08 501.439 1103.09 466.099C1102.18 449.899 1092.31 440.519 1076.09 438.709C1067.81 437.789 1059.44 438.589 1051.22 436.849C1043.47 435.209 1037.94 431.349 1036.08 423.179C1034.87 417.648 1034.28 412 1034.32 406.339C1034.32 381.052 1034.33 355.742 1034.34 330.409ZM743.28 1349.31C751.339 1349.2 759.214 1346.88 766.05 1342.61C810.12 1315.17 854.32 1287.95 898.27 1260.31C929.53 1240.66 961.55 1222.17 991.56 1200.55C994 1198.79 996.26 1197.79 993.48 1193.79C964.733 1152.55 936.16 1111.19 907.76 1069.7C905.76 1066.83 904.5 1066.5 901.58 1068.42C885.26 1079.35 868.126 1089.01 850.33 1097.33C792.96 1123.65 733.69 1130.41 672.17 1115.08C641.77 1107.51 613.27 1095.34 586.04 1080.08C582.54 1078.08 580.76 1078.08 578.28 1081.8C552.58 1120.47 526.72 1159.05 500.7 1197.54C498.59 1200.67 499.44 1201.87 502.2 1203.54C578.04 1250.74 653.58 1298.42 729.75 1345.11C733.797 1347.71 738.473 1349.16 743.28 1349.31ZM780.2 1379.48C780.93 1380.42 781.2 1380.84 781.54 1381.19C812.753 1412.41 843.95 1443.64 875.13 1474.88C877.7 1477.46 878.66 1477.28 880.13 1473.94C888.64 1454.45 897.32 1435.03 905.98 1415.6C923.313 1376.76 940.676 1337.94 958.07 1299.13C959.58 1295.78 958.96 1294.13 955.94 1292.41C951.35 1289.72 946.913 1286.77 942.65 1283.59C939.65 1281.33 937.43 1281.07 933.97 1283.27C906.86 1300.46 879.56 1317.36 852.33 1334.37C828.35 1349.33 804.41 1364.33 780.2 1379.48ZM712.2 1381.24C712.02 1379.24 710.2 1378.99 709.07 1378.24C657.03 1345.72 604.983 1313.21 552.93 1280.7C550.06 1278.9 548.62 1279.63 546.79 1281.81C543.16 1286.15 539.52 1290.5 535.59 1294.57C533.25 1296.99 533.14 1299.06 534.5 1302.04C543.28 1321.4 551.89 1340.84 560.5 1360.26C577.626 1398.65 594.75 1437.05 611.87 1475.45C612.87 1477.71 613.15 1480.45 616.58 1477.03C647.693 1445.7 678.883 1414.46 710.15 1383.33C710.89 1382.66 711.55 1381.93 712.19 1381.24H712.2Z"/>
</mask>
<path d="M1485.12 1537.85C1485.12 1552.67 1485.12 1567.5 1485.12 1582.32C1485.17 1597.42 1474.04 1605.97 1459.5 1601.77C1451.9 1599.57 1448.05 1593.85 1447.1 1586.41C1445.22 1571.83 1445.43 1557.14 1445.84 1542.5C1446.78 1509.12 1446.47 1475.89 1438.16 1443.23C1417.61 1362.55 1369.62 1303.63 1296.51 1264.72C1264.51 1247.72 1230.38 1236.81 1194.63 1231.25C1183.36 1229.5 1171.93 1228.59 1160.52 1227.63C1123.24 1224.49 1085.98 1226.42 1048.71 1226.74C1037.71 1226.84 1031.04 1233.97 1026.11 1242.59C1019.27 1254.59 1014.39 1267.59 1008.77 1280.14C973.983 1357.99 939.246 1435.86 904.56 1513.75C902.47 1518.29 899.83 1522.55 896.7 1526.45C887.58 1538.09 878.46 1538.09 868.15 1528C834.09 1494.66 800.56 1460.8 767.03 1426.93C760.94 1420.78 756.84 1412.93 752.27 1405.61C749.84 1401.7 748.5 1401.87 745.36 1405.03C706.853 1443.81 668.25 1482.5 629.55 1521.11C624.64 1526.01 619.49 1530.64 613 1533.3C604.39 1536.83 600.66 1534.97 595 1528.3C586.08 1517.8 582.42 1504.47 576.67 1492.3C568.67 1475.3 561.35 1458.05 553.76 1440.9C543.62 1418.01 533.483 1395.12 523.35 1372.22C515.2 1353.85 507 1335.5 498.91 1317.11C489.97 1296.78 481.19 1276.37 472.21 1256.11C467.74 1245.99 463.1 1235.94 452.39 1230.55C446.489 1227.6 439.987 1226.05 433.39 1226.03C417.23 1225.86 401.06 1225.84 384.9 1226.18C369 1226.52 353.07 1226.9 337.22 1228.11C299.78 1230.94 263.02 1237.11 227.77 1250.87C199.2 1262.03 172.35 1276.29 148.53 1295.48C100.61 1334.06 69.1597 1383.48 54.3097 1443.3C50.4586 1458.77 47.8173 1474.51 46.4097 1490.39C44.0597 1516.97 45.7697 1543.6 45.3197 1570.21C45.1897 1577.65 45.0697 1585.07 42.3197 1592.15C39.7197 1598.96 34.5797 1602.37 27.4797 1602.86C19.8597 1603.39 13.2697 1601.51 9.22965 1594.28C6.46965 1589.28 5.61965 1583.88 5.56965 1578.37C5.37965 1554.55 4.46965 1530.69 5.43965 1506.9C8.43965 1432.44 33.0597 1366.03 80.6796 1308.24C103.75 1280.24 131.47 1258.18 162.68 1240.24C187.966 1225.86 214.77 1214.33 242.6 1205.86C261.134 1199.95 280.131 1195.6 299.39 1192.86C315.28 1190.71 331.22 1189.66 347.23 1188.72C366.7 1187.58 386.14 1187.81 405.58 1188.27C414.19 1188.47 422.82 1189.06 431.44 1188.9C449.65 1188.55 464.72 1181.43 475.04 1166.29C489.04 1145.78 502.26 1124.76 515.97 1104.06C525.09 1090.29 534.376 1076.63 543.83 1063.06C545.22 1061.06 545.01 1060.22 543.55 1058.59C528.88 1042.27 514.66 1025.59 499.65 1009.52C480.088 988.662 462.278 966.229 446.4 942.449C434.209 924.06 423.213 904.908 413.48 885.109C402.463 862.774 393.215 839.61 385.82 815.829C380.189 797.892 375.703 779.615 372.39 761.109C370.49 750.439 369.02 739.699 367.16 729.049C365.52 719.639 358.41 713.319 351.16 707.899C336.64 697.019 320.36 688.619 305.86 677.639C291.81 667.009 283.21 653.129 281.41 635.319C280.75 628.809 281.08 622.319 281.06 615.779C280.97 585.429 283.39 555.059 281.13 524.779C280.53 516.779 279.99 508.669 279.6 500.699C278.6 481.129 283.6 462.749 295.88 446.999C303.661 437.234 313.094 428.908 323.75 422.399C341.58 411.209 349.87 395.399 349.53 374.399C349.06 345.079 348.96 315.749 349.44 286.399C349.65 273.939 350.85 261.399 352.22 248.989C357.59 199.989 379.39 159.229 413.13 124.159C444.7 91.3387 482.83 70.1587 527.13 60.3687C537.69 58.0287 548.63 57.5087 559.29 55.5487C578.76 51.9687 597.29 45.1687 616.15 39.2087C638.73 32.0487 661.58 25.7987 684.75 20.7387C705.16 16.2887 725.64 12.4487 746.39 9.96872C762.51 8.01872 778.6 6.66872 794.79 5.77872C806.79 5.11872 818.72 4.77872 830.66 5.15872C875.42 6.41872 918.37 15.2287 957.82 37.3987C971.554 45.2105 984.374 54.5316 996.04 65.1887C1016.18 83.3587 1031.62 104.909 1043.51 129.069C1054.12 150.903 1061.42 174.195 1065.17 198.179C1067.83 214.459 1069.25 230.839 1070.35 247.309C1072.48 279.499 1073.12 311.689 1073.22 343.919C1073.22 355.409 1073.38 366.919 1074.32 378.359C1075.22 389.459 1081.14 399.559 1093.68 403.929C1104.06 407.559 1114.56 410.769 1123.23 418.009C1131.9 425.249 1137.34 434.379 1138.07 445.499C1140.73 485.719 1140.46 526.009 1140.27 566.279C1140.15 591.099 1139.57 615.909 1139.03 640.719C1138.69 655.899 1136.28 670.509 1126.18 682.789C1120.18 690.139 1113.48 696.789 1105.09 701.359C1091.6 708.679 1085.26 719.579 1083.93 735.069C1082.04 757.069 1077.72 778.769 1072.56 800.309C1066.03 827.522 1057.25 854.144 1046.3 879.899C1035.74 904.489 1023.18 928.178 1008.77 950.729C997.216 968.83 984.524 986.178 970.77 1002.67C960.618 1015.15 949.827 1027.09 938.44 1038.46C936.1 1040.76 935.94 1042.34 937.84 1045.1C967.58 1088.3 996.99 1131.72 1027.37 1174.48C1034.82 1184.97 1046.17 1186.94 1057.83 1187.75C1080.56 1189.32 1103.36 1189.11 1126.13 1189.89C1141.85 1190.42 1157.58 1190.89 1173.28 1191.89C1222.71 1194.89 1270.28 1205.44 1314.51 1228.47C1397.98 1271.97 1451.16 1339.42 1474.06 1430.82C1482.28 1463.45 1483.99 1496.82 1484.29 1530.34C1484.29 1532.84 1484.29 1535.34 1484.29 1537.84L1485.12 1537.85ZM1034.34 330.409H1034.4C1034.4 326.579 1034.4 322.739 1034.4 318.909C1034.28 286.319 1035.67 253.679 1031.13 221.239C1028.01 198.899 1022.55 177.189 1013.65 156.399C992.91 108.019 958.56 73.9487 908.19 57.0187C884.7 49.1487 860.35 45.6287 835.73 44.0187C816.802 42.9171 797.821 43.1711 778.93 44.7787C760.46 46.1787 742.16 48.3687 723.98 51.5887C685.65 58.3787 648.26 68.8287 611.62 81.8587C592.91 88.5087 574.25 94.8587 554.21 96.0287C533.78 97.1887 514.57 103.259 496.11 111.659C473.067 122.038 452.455 137.128 435.6 155.959C425.867 166.884 417.384 178.861 410.31 191.669C393.44 221.919 387.77 255.019 387.38 289.019C386.89 330.669 387.25 372.329 387.27 414.019C387.27 423.889 383.57 431.779 374.79 436.569C367.72 440.439 360.64 444.269 353.9 448.689C345.37 454.299 336.36 459.379 329.84 467.499C320.75 478.819 318.38 491.869 318.84 506.209C319.6 530.519 318.93 554.859 319.5 579.209C319.84 594.119 317.12 608.989 319.3 623.899C321.55 639.339 329.3 650.969 342.89 658.759C356.18 666.369 370.51 670.979 385.46 673.839C396.66 675.989 403.64 682.009 404.56 693.899C406.02 712.739 408.17 731.489 411.16 750.159C420.72 809.879 440.78 865.719 473.65 916.569C495.828 950.754 523 981.428 554.26 1007.57C574.12 1024.3 594.95 1039.64 617.46 1052.57C647.86 1070.07 680.19 1081.9 715.39 1085.22C756.33 1089.07 795.03 1081.22 831.95 1063.59C851.659 1054.11 870.245 1042.45 887.36 1028.83C909.027 1011.78 928.749 992.391 946.17 971.019C961.776 951.96 975.84 931.689 988.23 910.399C1006.05 879.8 1020.07 847.138 1029.97 813.139C1036.97 788.979 1042.05 764.399 1044.31 739.249C1045.63 724.619 1047.06 710.039 1047.38 695.319C1047.57 686.719 1050.9 676.619 1062.66 673.919C1066.66 672.989 1070.66 671.919 1074.6 670.669C1093.22 664.559 1101.5 655.809 1103.2 634.549C1104.87 613.769 1104.2 592.919 1104.2 572.099C1104.2 536.779 1105.08 501.439 1103.09 466.099C1102.18 449.899 1092.31 440.519 1076.09 438.709C1067.81 437.789 1059.44 438.589 1051.22 436.849C1043.47 435.209 1037.94 431.349 1036.08 423.179C1034.87 417.648 1034.28 412 1034.32 406.339C1034.32 381.052 1034.33 355.742 1034.34 330.409ZM743.28 1349.31C751.339 1349.2 759.214 1346.88 766.05 1342.61C810.12 1315.17 854.32 1287.95 898.27 1260.31C929.53 1240.66 961.55 1222.17 991.56 1200.55C994 1198.79 996.26 1197.79 993.48 1193.79C964.733 1152.55 936.16 1111.19 907.76 1069.7C905.76 1066.83 904.5 1066.5 901.58 1068.42C885.26 1079.35 868.126 1089.01 850.33 1097.33C792.96 1123.65 733.69 1130.41 672.17 1115.08C641.77 1107.51 613.27 1095.34 586.04 1080.08C582.54 1078.08 580.76 1078.08 578.28 1081.8C552.58 1120.47 526.72 1159.05 500.7 1197.54C498.59 1200.67 499.44 1201.87 502.2 1203.54C578.04 1250.74 653.58 1298.42 729.75 1345.11C733.797 1347.71 738.473 1349.16 743.28 1349.31ZM780.2 1379.48C780.93 1380.42 781.2 1380.84 781.54 1381.19C812.753 1412.41 843.95 1443.64 875.13 1474.88C877.7 1477.46 878.66 1477.28 880.13 1473.94C888.64 1454.45 897.32 1435.03 905.98 1415.6C923.313 1376.76 940.676 1337.94 958.07 1299.13C959.58 1295.78 958.96 1294.13 955.94 1292.41C951.35 1289.72 946.913 1286.77 942.65 1283.59C939.65 1281.33 937.43 1281.07 933.97 1283.27C906.86 1300.46 879.56 1317.36 852.33 1334.37C828.35 1349.33 804.41 1364.33 780.2 1379.48ZM712.2 1381.24C712.02 1379.24 710.2 1378.99 709.07 1378.24C657.03 1345.72 604.983 1313.21 552.93 1280.7C550.06 1278.9 548.62 1279.63 546.79 1281.81C543.16 1286.15 539.52 1290.5 535.59 1294.57C533.25 1296.99 533.14 1299.06 534.5 1302.04C543.28 1321.4 551.89 1340.84 560.5 1360.26C577.626 1398.65 594.75 1437.05 611.87 1475.45C612.87 1477.71 613.15 1480.45 616.58 1477.03C647.693 1445.7 678.883 1414.46 710.15 1383.33C710.89 1382.66 711.55 1381.93 712.19 1381.24H712.2Z" fill="#7B297F"/>
<path d="M1485.12 1537.85C1485.12 1552.67 1485.12 1567.5 1485.12 1582.32C1485.17 1597.42 1474.04 1605.97 1459.5 1601.77C1451.9 1599.57 1448.05 1593.85 1447.1 1586.41C1445.22 1571.83 1445.43 1557.14 1445.84 1542.5C1446.78 1509.12 1446.47 1475.89 1438.16 1443.23C1417.61 1362.55 1369.62 1303.63 1296.51 1264.72C1264.51 1247.72 1230.38 1236.81 1194.63 1231.25C1183.36 1229.5 1171.93 1228.59 1160.52 1227.63C1123.24 1224.49 1085.98 1226.42 1048.71 1226.74C1037.71 1226.84 1031.04 1233.97 1026.11 1242.59C1019.27 1254.59 1014.39 1267.59 1008.77 1280.14C973.983 1357.99 939.246 1435.86 904.56 1513.75C902.47 1518.29 899.83 1522.55 896.7 1526.45C887.58 1538.09 878.46 1538.09 868.15 1528C834.09 1494.66 800.56 1460.8 767.03 1426.93C760.94 1420.78 756.84 1412.93 752.27 1405.61C749.84 1401.7 748.5 1401.87 745.36 1405.03C706.853 1443.81 668.25 1482.5 629.55 1521.11C624.64 1526.01 619.49 1530.64 613 1533.3C604.39 1536.83 600.66 1534.97 595 1528.3C586.08 1517.8 582.42 1504.47 576.67 1492.3C568.67 1475.3 561.35 1458.05 553.76 1440.9C543.62 1418.01 533.483 1395.12 523.35 1372.22C515.2 1353.85 507 1335.5 498.91 1317.11C489.97 1296.78 481.19 1276.37 472.21 1256.11C467.74 1245.99 463.1 1235.94 452.39 1230.55C446.489 1227.6 439.987 1226.05 433.39 1226.03C417.23 1225.86 401.06 1225.84 384.9 1226.18C369 1226.52 353.07 1226.9 337.22 1228.11C299.78 1230.94 263.02 1237.11 227.77 1250.87C199.2 1262.03 172.35 1276.29 148.53 1295.48C100.61 1334.06 69.1597 1383.48 54.3097 1443.3C50.4586 1458.77 47.8173 1474.51 46.4097 1490.39C44.0597 1516.97 45.7697 1543.6 45.3197 1570.21C45.1897 1577.65 45.0697 1585.07 42.3197 1592.15C39.7197 1598.96 34.5797 1602.37 27.4797 1602.86C19.8597 1603.39 13.2697 1601.51 9.22965 1594.28C6.46965 1589.28 5.61965 1583.88 5.56965 1578.37C5.37965 1554.55 4.46965 1530.69 5.43965 1506.9C8.43965 1432.44 33.0597 1366.03 80.6796 1308.24C103.75 1280.24 131.47 1258.18 162.68 1240.24C187.966 1225.86 214.77 1214.33 242.6 1205.86C261.134 1199.95 280.131 1195.6 299.39 1192.86C315.28 1190.71 331.22 1189.66 347.23 1188.72C366.7 1187.58 386.14 1187.81 405.58 1188.27C414.19 1188.47 422.82 1189.06 431.44 1188.9C449.65 1188.55 464.72 1181.43 475.04 1166.29C489.04 1145.78 502.26 1124.76 515.97 1104.06C525.09 1090.29 534.376 1076.63 543.83 1063.06C545.22 1061.06 545.01 1060.22 543.55 1058.59C528.88 1042.27 514.66 1025.59 499.65 1009.52C480.088 988.662 462.278 966.229 446.4 942.449C434.209 924.06 423.213 904.908 413.48 885.109C402.463 862.774 393.215 839.61 385.82 815.829C380.189 797.892 375.703 779.615 372.39 761.109C370.49 750.439 369.02 739.699 367.16 729.049C365.52 719.639 358.41 713.319 351.16 707.899C336.64 697.019 320.36 688.619 305.86 677.639C291.81 667.009 283.21 653.129 281.41 635.319C280.75 628.809 281.08 622.319 281.06 615.779C280.97 585.429 283.39 555.059 281.13 524.779C280.53 516.779 279.99 508.669 279.6 500.699C278.6 481.129 283.6 462.749 295.88 446.999C303.661 437.234 313.094 428.908 323.75 422.399C341.58 411.209 349.87 395.399 349.53 374.399C349.06 345.079 348.96 315.749 349.44 286.399C349.65 273.939 350.85 261.399 352.22 248.989C357.59 199.989 379.39 159.229 413.13 124.159C444.7 91.3387 482.83 70.1587 527.13 60.3687C537.69 58.0287 548.63 57.5087 559.29 55.5487C578.76 51.9687 597.29 45.1687 616.15 39.2087C638.73 32.0487 661.58 25.7987 684.75 20.7387C705.16 16.2887 725.64 12.4487 746.39 9.96872C762.51 8.01872 778.6 6.66872 794.79 5.77872C806.79 5.11872 818.72 4.77872 830.66 5.15872C875.42 6.41872 918.37 15.2287 957.82 37.3987C971.554 45.2105 984.374 54.5316 996.04 65.1887C1016.18 83.3587 1031.62 104.909 1043.51 129.069C1054.12 150.903 1061.42 174.195 1065.17 198.179C1067.83 214.459 1069.25 230.839 1070.35 247.309C1072.48 279.499 1073.12 311.689 1073.22 343.919C1073.22 355.409 1073.38 366.919 1074.32 378.359C1075.22 389.459 1081.14 399.559 1093.68 403.929C1104.06 407.559 1114.56 410.769 1123.23 418.009C1131.9 425.249 1137.34 434.379 1138.07 445.499C1140.73 485.719 1140.46 526.009 1140.27 566.279C1140.15 591.099 1139.57 615.909 1139.03 640.719C1138.69 655.899 1136.28 670.509 1126.18 682.789C1120.18 690.139 1113.48 696.789 1105.09 701.359C1091.6 708.679 1085.26 719.579 1083.93 735.069C1082.04 757.069 1077.72 778.769 1072.56 800.309C1066.03 827.522 1057.25 854.144 1046.3 879.899C1035.74 904.489 1023.18 928.178 1008.77 950.729C997.216 968.83 984.524 986.178 970.77 1002.67C960.618 1015.15 949.827 1027.09 938.44 1038.46C936.1 1040.76 935.94 1042.34 937.84 1045.1C967.58 1088.3 996.99 1131.72 1027.37 1174.48C1034.82 1184.97 1046.17 1186.94 1057.83 1187.75C1080.56 1189.32 1103.36 1189.11 1126.13 1189.89C1141.85 1190.42 1157.58 1190.89 1173.28 1191.89C1222.71 1194.89 1270.28 1205.44 1314.51 1228.47C1397.98 1271.97 1451.16 1339.42 1474.06 1430.82C1482.28 1463.45 1483.99 1496.82 1484.29 1530.34C1484.29 1532.84 1484.29 1535.34 1484.29 1537.84L1485.12 1537.85ZM1034.34 330.409H1034.4C1034.4 326.579 1034.4 322.739 1034.4 318.909C1034.28 286.319 1035.67 253.679 1031.13 221.239C1028.01 198.899 1022.55 177.189 1013.65 156.399C992.91 108.019 958.56 73.9487 908.19 57.0187C884.7 49.1487 860.35 45.6287 835.73 44.0187C816.802 42.9171 797.821 43.1711 778.93 44.7787C760.46 46.1787 742.16 48.3687 723.98 51.5887C685.65 58.3787 648.26 68.8287 611.62 81.8587C592.91 88.5087 574.25 94.8587 554.21 96.0287C533.78 97.1887 514.57 103.259 496.11 111.659C473.067 122.038 452.455 137.128 435.6 155.959C425.867 166.884 417.384 178.861 410.31 191.669C393.44 221.919 387.77 255.019 387.38 289.019C386.89 330.669 387.25 372.329 387.27 414.019C387.27 423.889 383.57 431.779 374.79 436.569C367.72 440.439 360.64 444.269 353.9 448.689C345.37 454.299 336.36 459.379 329.84 467.499C320.75 478.819 318.38 491.869 318.84 506.209C319.6 530.519 318.93 554.859 319.5 579.209C319.84 594.119 317.12 608.989 319.3 623.899C321.55 639.339 329.3 650.969 342.89 658.759C356.18 666.369 370.51 670.979 385.46 673.839C396.66 675.989 403.64 682.009 404.56 693.899C406.02 712.739 408.17 731.489 411.16 750.159C420.72 809.879 440.78 865.719 473.65 916.569C495.828 950.754 523 981.428 554.26 1007.57C574.12 1024.3 594.95 1039.64 617.46 1052.57C647.86 1070.07 680.19 1081.9 715.39 1085.22C756.33 1089.07 795.03 1081.22 831.95 1063.59C851.659 1054.11 870.245 1042.45 887.36 1028.83C909.027 1011.78 928.749 992.391 946.17 971.019C961.776 951.96 975.84 931.689 988.23 910.399C1006.05 879.8 1020.07 847.138 1029.97 813.139C1036.97 788.979 1042.05 764.399 1044.31 739.249C1045.63 724.619 1047.06 710.039 1047.38 695.319C1047.57 686.719 1050.9 676.619 1062.66 673.919C1066.66 672.989 1070.66 671.919 1074.6 670.669C1093.22 664.559 1101.5 655.809 1103.2 634.549C1104.87 613.769 1104.2 592.919 1104.2 572.099C1104.2 536.779 1105.08 501.439 1103.09 466.099C1102.18 449.899 1092.31 440.519 1076.09 438.709C1067.81 437.789 1059.44 438.589 1051.22 436.849C1043.47 435.209 1037.94 431.349 1036.08 423.179C1034.87 417.648 1034.28 412 1034.32 406.339C1034.32 381.052 1034.33 355.742 1034.34 330.409ZM743.28 1349.31C751.339 1349.2 759.214 1346.88 766.05 1342.61C810.12 1315.17 854.32 1287.95 898.27 1260.31C929.53 1240.66 961.55 1222.17 991.56 1200.55C994 1198.79 996.26 1197.79 993.48 1193.79C964.733 1152.55 936.16 1111.19 907.76 1069.7C905.76 1066.83 904.5 1066.5 901.58 1068.42C885.26 1079.35 868.126 1089.01 850.33 1097.33C792.96 1123.65 733.69 1130.41 672.17 1115.08C641.77 1107.51 613.27 1095.34 586.04 1080.08C582.54 1078.08 580.76 1078.08 578.28 1081.8C552.58 1120.47 526.72 1159.05 500.7 1197.54C498.59 1200.67 499.44 1201.87 502.2 1203.54C578.04 1250.74 653.58 1298.42 729.75 1345.11C733.797 1347.71 738.473 1349.16 743.28 1349.31ZM780.2 1379.48C780.93 1380.42 781.2 1380.84 781.54 1381.19C812.753 1412.41 843.95 1443.64 875.13 1474.88C877.7 1477.46 878.66 1477.28 880.13 1473.94C888.64 1454.45 897.32 1435.03 905.98 1415.6C923.313 1376.76 940.676 1337.94 958.07 1299.13C959.58 1295.78 958.96 1294.13 955.94 1292.41C951.35 1289.72 946.913 1286.77 942.65 1283.59C939.65 1281.33 937.43 1281.07 933.97 1283.27C906.86 1300.46 879.56 1317.36 852.33 1334.37C828.35 1349.33 804.41 1364.33 780.2 1379.48ZM712.2 1381.24C712.02 1379.24 710.2 1378.99 709.07 1378.24C657.03 1345.72 604.983 1313.21 552.93 1280.7C550.06 1278.9 548.62 1279.63 546.79 1281.81C543.16 1286.15 539.52 1290.5 535.59 1294.57C533.25 1296.99 533.14 1299.06 534.5 1302.04C543.28 1321.4 551.89 1340.84 560.5 1360.26C577.626 1398.65 594.75 1437.05 611.87 1475.45C612.87 1477.71 613.15 1480.45 616.58 1477.03C647.693 1445.7 678.883 1414.46 710.15 1383.33C710.89 1382.66 711.55 1381.93 712.19 1381.24H712.2Z" stroke="#7B2880" stroke-width="10" mask="url(#path-1-outside-1_109_20)"/>
</svg>
