<?xml version="1.0" standalone="no"?>
<!DOCTYPE svg PUBLIC "-//W3C//DTD SVG 20010904//EN"
 "http://www.w3.org/TR/2001/REC-SVG-20010904/DTD/svg10.dtd">
<svg version="1.0" xmlns="http://www.w3.org/2000/svg"
 width="464.000000pt" height="464.000000pt" viewBox="0 0 464.000000 464.000000"
 preserveAspectRatio="xMidYMid meet">
<metadata>
Created by potrace 1.14, written by Peter Selinger 2001-2017
</metadata>
<g transform="translate(0.000000,464.000000) scale(0.100000,-0.100000)"
fill="#000000" stroke="none">
<path d="M2050 4614 c-71 -12 -105 -18 -157 -28 -127 -26 -333 -103 -472 -177
-81 -44 -237 -141 -251 -158 -3 -3 -23 -19 -45 -35 -65 -48 -256 -244 -321
-331 -271 -359 -413 -783 -409 -1221 3 -249 31 -410 109 -628 97 -269 321
-620 506 -793 135 -126 351 -114 477 27 13 14 35 50 49 80 22 45 27 70 28 135
1 69 -3 89 -27 138 -16 31 -49 80 -75 108 -203 223 -338 478 -386 729 -21 109
-14 386 12 500 138 585 621 992 1196 1004 88 2 132 -1 260 -20 118 -17 354
-117 471 -200 66 -47 161 -129 205 -178 19 -22 41 -45 47 -52 36 -36 131 -180
169 -257 145 -287 183 -610 109 -923 -55 -233 -164 -433 -334 -614 -41 -43
-74 -127 -77 -196 -4 -102 28 -185 99 -255 112 -111 297 -126 425 -33 39 29
139 139 193 214 50 68 119 170 119 174 0 2 16 33 36 68 112 197 206 500 231
738 10 98 10 335 0 430 -54 519 -343 1048 -737 1350 -25 19 -47 37 -50 40 -3
3 -39 29 -81 57 -98 67 -260 152 -369 193 -47 18 -94 36 -105 41 -36 15 -228
59 -320 73 -110 17 -420 17 -525 0z"/>
<path d="M2224 1914 c-159 -54 -238 -234 -169 -382 49 -105 141 -165 254 -165
160 0 283 120 283 278 0 192 -189 330 -368 269z"/>
<path d="M1591 1116 c-133 -48 -215 -222 -187 -399 10 -64 59 -157 103 -197
77 -70 54 -68 794 -68 629 1 666 0 693 -17 33 -22 46 -52 46 -107 0 -50 -45
-97 -94 -99 -17 -1 -357 -2 -756 -3 -791 -1 -756 1 -781 -59 -24 -58 -5 -131
41 -154 20 -10 190 -13 788 -13 743 0 764 1 805 21 107 51 172 160 181 301 8
137 -55 262 -164 326 l-45 27 -610 2 c-335 2 -645 3 -688 3 -71 0 -80 2 -102
26 -31 33 -40 82 -25 129 24 73 -24 69 814 70 544 0 757 4 771 12 60 34 65
148 8 193 -25 20 -35 20 -792 19 -575 0 -774 -4 -800 -13z"/>
</g>
</svg>
