<svg xmlns="http://www.w3.org/2000/svg" viewBox="0 0 1027.54 856.9"><defs><style>.cls-1{fill:#7b2880;}</style></defs><g id="Layer_2" data-name="Layer 2"><g id="Layer_1-2" data-name="Layer 1"><path class="cls-1" d="M513.69,856.84H41.81a31.62,31.62,0,0,1-8.4-.76c-5.39-1.47-9-5.26-9.41-10.2-.13-1.45-.06-2.92-.06-4.37Q24,617.23,24,393c0-29.29,0-58.58.14-87.87a30.87,30.87,0,0,0-7.82-21.17C6.58,272.7,1.67,259.91.16,246c-.62-5.76.61-11.29,2.43-16.78q21.53-64.69,43-129.4a42.87,42.87,0,0,0,2.27-13.76q-.09-35.64,0-71.26C47.86,4.2,52.7,0,64.8,0H961.06c.83,0,1.67,0,2.5,0,11.18.17,16.22,4.45,16.27,14.22.1,18.5.82,37-.18,55.51-1,18.9,4.19,36.56,10.2,54.34,12.1,35.82,23.73,71.75,35.56,107.63,5.78,17.55-1,33-10.9,47.73-2.51,3.75-5.81,7.1-8.67,10.67a12.26,12.26,0,0,0-2.67,10.76,37.71,37.71,0,0,1,.43,7.82q0,265.37,0,530.73c0,1.16,0,2.33,0,3.49-.15,9.43-5.25,13.9-16.06,13.92q-48.73.06-97.47.07l-313.92-.06ZM975.88,309.67c-3.08.78-5.63,1.4-8.16,2.07-7.83,2.08-15.76,3.79-24,3.82-26.82.11-48.62-9.35-66.21-26.75-6.55-6.47-6.55-6.45-13.15,0-16.74,16.45-37.51,26.06-62.83,26.62-26.72.6-48.83-8.68-66.48-26.14-7-6.89-6.95-7-13.78-.34-17.73,17.21-39.37,27-66.29,26.57-24.92-.4-45.17-9.63-61.86-25.45-2.57-2.43-5.32-6.6-8-6.6-3.4,0-5.59,4.46-8.2,7.06C548.13,319.2,498.47,323.73,463.47,301c-7.28-4.74-13.3-10.54-19-16.6-1.6-1.69-2.66-1.78-4.11-.07-.69.82-1.53,1.53-2.29,2.31-16.61,17-37,27.89-63.1,28.86-28.45,1.07-51.28-9.05-69.8-27.48-5.58-5.55-5.62-5.47-11.23,0-18.48,18.08-41,28.55-69.34,27.49-24.69-.91-44.58-10.43-60.88-26.3-6.69-6.51-6.85-6.49-13.82,0-12.6,11.66-27.1,20.6-45.19,24.46-16.18,3.46-32.08,1.69-47.84-2.07-3.49-.83-5.11-.74-5.11,3.28q.18,256.83,0,513.66c0,3.71,1.49,4.16,5.11,4.15q52.49-.17,105,0c4.27,0,5.13-1.14,5.11-4.66-.17-28.27-.1-56.54-.1-84.81q0-166.34,0-332.68c0-10.65,4.62-14.8,16.77-15.12,1.66,0,3.33,0,5,0H375.53q233.43,0,466.86.15c14.92,0,18.79,4.65,18.5,15.52,0,1.17,0,2.33,0,3.5q0,206.55-.11,413.12c0,4.11,1.34,4.93,5.76,4.91q51.48-.24,103,0c5.07,0,6.51-1,6.5-5.58q-.22-256-.13-511.92ZM513.39,107.48H87c-13.57,0-15.78,1.31-19.47,12.45Q50.15,172.51,32.91,225.12c-2.66,8.08-5.69,16-4,24.75,6.81,35.72,54,53.62,88.27,33.24,17.11-10.17,25.37-24.55,25.85-42.53.17-6.77,5.45-11.34,13.25-11.84,6.6-.42,12.65,4,13.79,10.29.39,2.15.61,4.33.79,6.51,1.71,20.45,18.09,38,40.91,43.89,23,5.91,48.16-1.2,62.12-17.56a49.4,49.4,0,0,0,11.93-30.93c.31-7,5.92-12,13.41-12.23,7.15-.19,12.86,4.43,13.91,11.31.25,1.59.38,3.19.54,4.78,2,19.67,12.88,34.15,33.57,42.12,20.9,8.05,41.09,5.88,59.3-6.24,15-10,21.64-23.87,22.21-40.21.25-7,6.16-11.69,13.88-11.62,7.42.06,12.89,4.88,13.36,11.7.17,2.46.42,4.93.79,7.38,3.65,23.66,25.63,41.94,52.07,43.34,29.17,1.54,53.58-13.53,60.72-37.5,1.39-4.69,1.35-9.52,2-14.29,1.17-9.17,12.68-13.66,21.39-8.48,5.19,3.08,6,7.75,6.19,12.67,1.4,32.6,37.74,54.88,73.86,45.77,23.45-5.92,40-24.29,41-45.62.22-4.26.35-8.54,4.4-11.64a14.94,14.94,0,0,1,14.84-2.41c5.87,2.14,8.36,6.34,8.53,11.77.51,16.07,7.56,29.52,22.19,39.32,18.59,12.44,39.25,14.19,60.23,5.68s31.31-23.69,32.65-43.66c.58-8.6,5.5-13.77,13.66-13.85,8.49-.07,13.91,5.13,14.2,13.83a44.41,44.41,0,0,0,1.15,8.66c9.28,39.83,61.44,48.81,88.08,31.92,19.8-12.55,29.52-32.38,23.44-50.83Q978.83,176.27,960.11,120c-3.36-10.12-7.15-12.58-19.33-12.57q-55.49,0-111,.07Q671.61,107.5,513.39,107.48Zm.55-24.41H945.28c6.7,0,6.7,0,6.7-6.06V30.23c0-5.75,0-5.76-6.55-5.76H82.24a18.94,18.94,0,0,1-2.5,0c-3.64-.53-4.35,1-4.32,3.89.15,16.47.26,32.94-.06,49.4-.09,4.4,1.18,5.44,6.23,5.43Q297.76,83,513.94,83.07Zm-14.1,543.2q0-100.53.1-201.07c0-4-.83-5.36-5.86-5.35q-146.93.22-293.87,0c-4.15,0-5.67.61-5.66,4.68q.19,201.72,0,403.44c0,3.58.89,4.59,5.13,4.58q147.44-.17,294.87,0c4.55,0,5.37-1.09,5.37-4.82Q499.73,727,499.84,626.27Zm333.07-.15q0-100.54.11-201.1c0-4.13-1-5.29-5.9-5.28q-146.72.21-293.43,0c-4.82,0-6,1-6,5.22q.21,201.33,0,402.65c0,3.94,1.07,5,5.66,5q147-.2,293.93,0c4.44,0,5.74-.85,5.73-4.91Q832.79,726.89,832.91,626.12Z"/><path class="cls-1" d="M431,615.43c.15,9-7.6,15.92-17.72,15.93-9.71,0-17.62-6.9-17.69-15.43s7.56-15.45,17.45-15.63S430.84,606.88,431,615.43Z"/><path class="cls-1" d="M632,615.43c.15,9-7.6,15.92-17.72,15.93-9.71,0-17.62-6.9-17.69-15.43s7.56-15.45,17.45-15.63S631.84,606.88,632,615.43Z"/></g></g></svg>